<?xml version="1.0" encoding="UTF-8"?>
<svg xmlns="http://www.w3.org/2000/svg" version="1.1" viewBox="0 0 1000 1000">
  <defs>
    <style>
      .cls-1 {
        fill: #c01d34;
      }
    </style>
  </defs>
  <!-- Generator: Adobe Illustrator 28.6.0, SVG Export Plug-In . SVG Version: 1.2.0 Build 709)  -->
  <g>
    <g id="Capa_1">
      <g>
        <path class="cls-1" d="M819.46,380.88c.2-.1.45-.16.61-.31,2.6-2.49,5.61-2.81,8.86-1.62,1.13-1.27,1.36-2.97,1.47-4.29.37-4.41,2.3-8.27,3.75-12.29,1.45-4.03,3.44-7.82,6.04-11.21,3.81-4.97,8.24-9.26,13.98-12.11,5.11-2.54,10.53-3.63,16.13-4.12,1.52-.13,3.03.08,4.51.58,2.37.8,4.91.9,7.26,1.88,3.3,1.38,6.31,3.2,9.29,5.17,4.57,3.03,8.06,7.13,11.57,11.19,2.07,2.4,3.71,5.17,5.5,7.81,2.51,3.71,4.5,7.72,6.01,11.9,1.64,4.52,2.94,9.19,3.65,13.96.41,2.74.87,5.47,1.3,8.2.21,1.34.29,2.82.34,4.24.12,3.7.26,7.41.2,11.09-.06,3.31-.21,6.67-.63,10-.32,2.47-.76,4.95-.87,7.41-.16,3.44-1.06,6.73-1.43,10.1-.29,2.58-1.2,5.01-1.59,7.56-.92,6-3.11,11.67-4.59,17.53-1.11,4.39-2.98,8.56-4.69,12.77-2.78,6.82-5.84,13.52-9.31,20.02-1.93,3.61-4.28,6.96-6.54,10.36-3.7,5.57-7.95,10.74-12.83,15.32-4.41,4.14-8.86,8.27-14.33,11.1-4.24,2.2-8.58,4.04-13.34,4.81-10.63,1.71-20.03-.79-28.03-8.12-.51-.46-1.08-.86-1.56-1.35-.52-.53-.91-.58-1.54-.07-2.68,2.15-5.76,1.94-8.79,1.14-3.53-.93-6.47-2.99-8.92-5.64-1.32-1.43-2.48-3.02-3.68-4.57-1.89-2.45-3.94-4.75-6-7.05-1.26-1.4-2.44-2.87-3.73-4.25-2.7-2.9-5.44-5.77-8.04-8.75-2.54-2.91-5.29-5.61-7.91-8.44-3.19-3.45-6.35-6.92-9.7-10.21-2.28-2.24-4.62-4.44-6.85-6.73-3.78-3.88-7.76-7.52-12.42-10.32-1.13-.68-2.03-1.84-3.55-1.82-.38,0-.28-.46-.32-.73-.07-.48-.2-.89-.86-.97-1.08,1.32-.86,2.97-.88,4.5-.02,1.38-.14,2.71-.39,4.07-.26,1.4-.56,2.8-.52,4.27.03,1.19-.3,2.41-.45,3.6-.42,3.5-.57,7.02-.89,10.53-.1,1.05-.09,2.11-.4,3.16-.61,2.03-.13,4.19-.5,6.26-.63,3.56-2.03,6.59-5.34,8.55-1.19.71-2.36,1.3-3.68,1.66-.37.1-.73.33-.68.79.05.42.38.61.8.66,3.33.4,6.4,1.83,9.67,2.4,5.22.92,10.23,2.66,15.36,3.94,5.28,1.32,10.44,3.06,15.71,4.42,6.02,1.56,11.82,3.8,17.81,5.44,6.23,1.71,12.23,4.06,18.39,5.97,6.79,2.11,13.49,4.53,20.21,6.85,6.08,2.1,12.17,4.16,18.2,6.41,8.25,3.08,16.38,6.48,24.53,9.81,4.59,1.88,9.19,3.76,13.85,5.48,3.61,1.33,7.17,2.87,10.76,4.29,7.22,2.86,14.43,5.74,21.7,8.47,5.52,2.07,11.14,3.91,16.88,5.22,2.67.61,5.55.76,8.26-.47,3.74-1.7,4.62-4.62,3.72-7.75-.94-3.3-2.42-6.37-3.9-9.47-2.32-4.85-4.87-9.57-7.21-14.4-1.81-3.73-3.89-7.33-5.74-11.04-1.24-2.48-2.44-4.98-3.6-7.5-1.26-2.73-2.61-5.45-4.01-8.13-2.77-5.3-5.78-10.49-8.27-15.92-2.14-4.67-3.09-9.66-1.46-14.81,1.03-3.26,3.24-5.3,6.37-6.56,5.39-2.16,10.14-.76,14.38,2.7,1.43,1.17,2.55,2.82,3.37,4.55,2.24,4.73,4.75,9.34,7.62,13.69,2.67,4.05,5.19,8.19,7.93,12.2,3.08,4.5,6.05,9.11,8.93,13.74,3.52,5.66,7.18,11.23,10.76,16.85,2.2,3.45,4.71,6.72,6.73,10.26,1.65,2.9,3.41,5.74,5.04,8.65,1.52,2.71,3.01,5.44,4.49,8.17,1.18,2.17,2.08,4.49,3.03,6.78.72,1.73,1.35,3.5,1.95,5.28.39,1.14.6,2.41.66,3.54.14,2.84.59,5.64.29,8.57-.41,4.09-1.8,7.67-3.91,11.02-2.79,4.44-6.89,7.31-11.73,9.27-2.55,1.03-5.21,1.48-7.82,2.16-.14.04-.3.07-.45.05-3.21-.39-6.43-.17-9.66-.52-6.39-.69-12.29-3.11-18.39-4.78-5.94-1.62-11.52-4.19-17.25-6.38-9.05-3.47-17.89-7.42-26.9-10.96-12.7-4.98-25.2-10.46-37.78-15.75-5.44-2.29-10.84-4.7-16.33-6.88-5.65-2.24-11.39-4.23-17.07-6.4-7.03-2.68-14.01-5.46-21.04-8.12-5.1-1.93-10.26-3.69-15.44-5.41-4.84-1.61-9.55-3.58-14.39-5.19-6.61-2.2-13.26-4.26-19.94-6.24-1.65-.49-3.36-.8-5.19-1.1,1.22,1.1,2.42,2.23,3.67,3.3,3.41,2.92,6.57,6.09,9.03,9.85,2.66,4.06,4.85,8.34,5.97,13.16.5,2.17.96,4.33,1.15,6.54.39,4.63-.45,9.13-1.69,13.57-.75,2.68-2.3,4.97-3.96,7.12-1.24,1.62-2.19,3.49-3.8,4.8-2.81,2.28-5.49,4.71-8.57,6.66-4.38,2.77-8.99,5.06-13.9,6.65-2.58.83-5.26,1.5-7.8,2.38-4.03,1.39-8.25,1.82-12.33,2.86-2.01.51-4.21.63-6.31.91-2.16.29-4.35.36-6.51.66-2.54.35-5.14.19-7.72.2-2.26.01-4.53-.08-6.79-.04-1.68.03-3.35-.07-5.03-.11-3.1-.07-6.18-.35-9.27-.43-2.12-.06-4.16-.59-6.26-.73-4.83-.32-9.6-1.13-14.38-1.92-5.45-.9-10.85-2.01-16.24-3.19-5.56-1.22-11.1-2.51-16.63-3.9-8.74-2.2-17.26-5.09-25.83-7.81-5.2-1.65-10.27-3.72-15.41-5.57-3.2-1.15-6.47-2.13-9.62-3.39-7.4-2.95-14.76-6-22.12-9.07-5.82-2.43-11.62-4.91-17.41-7.42-5.45-2.36-10.87-4.79-16.31-7.17-1.39-.61-2.81-1.15-4.21-1.75-.32-.14-.61-.15-.77.15-.07.15,0,.52.13.59.91.56,1.14,1.32.94,2.34-.08.38.24.68.61.89.33.19.79.47.66.84-.44,1.23.2,1.77,1.18,2.21.17.08.37.37.36.55-.08,1.03.02,1.9.89,2.7.44.39-.29,1.14-.97.81-.85-.41-1.4-.62-1.59.6-.07.45-.5.55-.9.41-.55-.19-.64-.61-.4-1.09.24-.47.73-.98-.21-1.18-1.4-.3-1.2-1.16-.73-2.05.35-.67.07-.82-.48-1.17-1.24-.81-2.89-.86-3.94-2.22-.23,1.76.64,3.25,1.06,4.82.48,1.75,1.18,3.43,1.67,5.18.47,1.68,1.11,3.31,1.47,5.03.36,1.76.9,3.48,1.44,5.2.52,1.66.91,3.35,1.28,5.06.37,1.7,1.01,3.36,1.2,5.08.21,1.83.8,3.55,1.12,5.34.31,1.7.41,3.43.92,5.12.53,1.73.83,3.55,1.02,5.35.18,1.69.89,3.27.8,4.97.79.19.72-.4.89-.78,2.09-4.64,4.15-9.29,7.21-13.42,3.45-4.66,7.14-9.08,12.11-12.23,2.19-1.39,4.63-2.3,7.15-2.73,2.28-.39,4.62-.84,6.97.02,3.78,1.39,6.29,3.76,7.63,7.74,1.39,4.15.05,7.39-2.25,10.55-1.21,1.66-2.65,3.15-3.85,4.8-3.41,4.67-6.19,9.71-8.6,14.96-2.76,6.01-5.28,12.11-6.76,18.56-1.03,4.47-1.89,9-2.67,13.54-.73,4.26-.68,8.59-1.65,12.81-.38,1.64-.18,3.47-.62,5.18-1.33,5.05-2.94,10-6.18,14.21-3,3.91-6.98,6.21-11.83,7.13-5.27,1-10.11.07-14.41-3.08-3.28-2.4-5.81-5.46-7.56-9.23-1.07-2.31-2.02-4.67-3.14-6.96-.6-1.21-.94-2.53-1.43-3.79-1.66-4.24-3.7-8.3-5.85-12.3-1.47-2.73-2.87-5.5-4.46-8.15-1.83-3.05-3.81-6-5.86-8.92-2.26-3.22-4.61-6.39-7.17-9.35-2.11-2.44-4.26-4.89-6.64-7.13-4.43-4.16-8.82-8.36-13.77-11.91-1.97-1.41-4-2.78-6.12-3.96-2.57-1.43-4.93-3.25-7.73-4.27-2.42-.89-4.81-1.83-7.22-2.73-2.42-.91-4.51-2.53-5.87-4.52-2.13-3.12-2.62-6.81-1.11-10.43,1.35-3.23,3.86-5.44,7.1-6.68,2.19-.84,4.51-1.18,6.87-1.09,4.82.17,9.36,1.58,13.84,3.17,6.92,2.46,12.99,6.5,19,10.56,3.44,2.32,6.98,4.59,9.86,7.68,1.49,1.59,3.52,2.58,5.04,4.57.37-2.22-.71-3.81-1.19-5.45-1.43-4.88-3.19-9.66-4.85-14.47-2.14-6.17-4.78-12.14-7.77-17.93-1.97-3.82-4.09-7.56-6.6-11.1-2.11-2.96-4.09-6.01-6.41-8.81-1.78-2.16-3.55-4.34-5.53-6.32-.98-.99-1.75-2.1-2.61-3.15-.41-.5-.68-.56-1.32-.27-2.67,1.22-5.49,2.05-8.27,3-3.16,1.09-6.37,2.04-9.45,3.36-3.56,1.53-7.2,2.88-10.8,4.34-2.66,1.08-5.25,2.36-7.96,3.3-2.5.87-4.86,2.01-7.27,3.07-2.21.96-4.41,1.94-6.61,2.92-4.03,1.8-8.02,3.66-12,5.56-6,2.86-12.04,5.62-17.98,8.6-5.68,2.85-11.52,5.4-17.18,8.3-4.65,2.38-9.33,4.69-14,7.03-3.37,1.69-6.75,3.34-10.09,5.06-2.03,1.04-3.97,2.25-6,3.28-3.51,1.77-7.04,3.51-10.62,5.16-2.68,1.23-5.24,2.73-7.92,3.92-2.5,1.11-4.91,2.38-7.38,3.53-2.88,1.34-5.7,2.82-8.58,4.16-1.14.53-2.35.93-3.52,1.4-3.42,1.39-6.76,2.94-10.21,4.25-4.25,1.62-8.38,3.56-12.62,5.23-3.61,1.42-7.3,2.59-10.99,3.78-5.03,1.62-10.09,3.1-15.2,4.4-4.26,1.08-8.53,2.11-12.89,2.75-2.09.31-4.22.44-6.29,1.01-1.43.39-3,.32-4.51.35-4.02.08-8.07.36-12.07.08-3.9-.27-7.79-.89-11.67-1.53-4.8-.79-9.22-2.47-13.58-4.41-4.95-2.2-8.87-5.71-12.37-9.81-2.11-2.47-3.73-5.23-4.9-8.16-1.16-2.91-1.86-6.02-2.1-9.2-.14-1.86-.16-3.69-.13-5.56.06-3.47.95-6.71,1.86-10,2.04-7.35,5.92-13.73,10.31-19.83,2.84-3.94,6.04-7.63,9.51-11.01,3.03-2.96,6.08-5.93,9.47-8.51,3.15-2.39,6.09-5.05,9.34-7.31,1.8-1.26,3.63-2.49,5.48-3.68,2.74-1.77,5.47-3.56,8.27-5.22,2.87-1.71,5.69-3.49,8.64-5.07,2.61-1.39,5.17-2.88,7.82-4.21,5.89-2.96,11.84-5.78,17.91-8.37,2.58-1.1,5.03-2.53,7.67-3.41,2.5-.83,4.87-1.96,7.41-2.68,2.4-.68,4.77-1.49,7.07-2.46,3.02-1.28,6.16-2.12,9.29-3.01,1.38-.39,2.73-.87,4.13-1.23,3.36-.87,6.65-2.01,10.05-2.67,1.26-.25,2.44-.87,3.79-.74.31.03.73-.25.98-.5.48-.47.47-1.07-.25-1.2-2.55-.46-4.23-2.17-6.01-3.84-.84-.79-1.18-1.78-1.66-2.68-1.57-2.94-2.93-5.99-4.42-8.97-1.76-3.51-2.96-7.25-4.65-10.79-1.95-4.09-3.58-8.33-5.35-12.51-.15-.35-.29-.71-.45-1.06-1.15-2.5-1.43-2.57-4.11-1.39-1.23.54-2.59.75-3.87,1.12-5.12,1.47-10.06,3.33-14.83,5.68-3.59,1.77-7.18,3.55-10.8,5.26-.99.46-1.7.95-1.7,2.15,0,.44-.37.89-.33,1.31.4,4.13-.99,8.08-1.28,12.16-.25,3.37-.59,6.77-.72,10.15-.12,2.99-.3,6.02-.64,8.94-.43,3.67-.23,7.62-2.47,10.92-1.66,2.46-3.81,4.36-6.77,4.91-2.71.5-6.91-1.87-8.25-4.43-1.35-2.58-2.03-5.29-2.02-8.27,0-2.05.33-4.08.32-6.09-.03-3.74.65-7.43.57-11.3-.84.32-.99,1.14-1.28,1.71-2.52,4.93-5.15,9.79-8.36,14.3-2.64,3.72-4.63,7.84-7.35,11.5-4.11,5.54-8.32,11-12.59,16.42-2.73,3.47-5.41,6.99-8.42,10.19-4.05,4.29-7.64,8.99-12.11,12.93-3.18,2.81-6.07,5.98-9.15,8.94-2.25,2.16-4.78,3.95-7.15,5.95-1.85,1.56-3.75,3.07-5.66,4.56-2.87,2.24-5.86,4.31-8.99,6.18-2.54,1.52-4.91,3.32-7.44,4.86-3.04,1.85-6.36,3.19-9.48,4.87-2.43,1.31-5.01,2.1-7.52,3.05-3.44,1.3-7.06,2.31-10.72,2.76-4.87.6-9.8,1-14.56-.89-2.7-1.07-5.4-2.21-7.45-4.29-3.19-3.24-5.62-7-5.99-11.67-.17-2.2-.78-4.44-.04-6.65.25-.76-.1-1.48-.12-2.22-.08-3.17,1.25-6.03,1.7-9.07.67-4.49,2.47-8.67,4.09-12.87,2.31-6,4.62-12.01,7.15-17.92,2.05-4.8,4.45-9.44,6.64-14.18,1.94-4.19,3.71-8.46,5.72-12.61,2.01-4.16,3.45-8.63,6.33-12.32,2.5-3.2,5.63-5.49,9.82-5.96,3.49-.4,6.44.66,8.68,3.38.86,1.05,1.31,2.39,1.64,3.72.78,3.2.25,6.36-.74,9.39-1.7,5.23-3.76,10.33-5.85,15.43-2.84,6.93-5.74,13.86-7.87,21.05-1.11,3.77-2.27,7.56-2.81,11.45-.37,2.72-.49,5.54.71,8.19.7,1.54,3.44,2.8,5.07,2.27,3.11-1.01,5.97-2.54,8.73-4.25,3.54-2.2,7.09-4.43,10.44-6.9,1.94-1.43,3.83-2.97,5.64-4.61,3.53-3.2,7.18-6.27,10.83-9.32,2.28-1.91,4.4-3.98,6.4-6.15.67-.73,1.72-.99,2.16-1.99.31-.71.8-1.28-.2-1.91-.55-.34-.87-1.03-.5-1.77.58-1.15.11-1.52-1.05-1.43-.37.03-.78-.2-1.12-.13-4.44.95-7.4-1.32-9.95-4.51-1.29-1.61-1.82-3.59-2.68-5.41-1.2-2.53-1.87-5.23-2.79-7.82-.87-2.46-1.86-4.92-2.63-7.43-.68-2.21-1.25-4.5-2.18-6.64-1.37-3.14-2.08-6.51-3.27-9.7-1.03-2.76-1.75-5.62-2.76-8.4-1.1-3.03-2.02-6.14-2.91-9.24-.74-2.57-1.82-4.97-2.8-7.53-4.99,3.6-10.41,6.31-15.57,9.44-2.71,1.64-5.95,2.55-9.35,2.1-1.79-.24-3.63.18-5.39-.67-3-1.46-5.23-3.46-6.19-6.81-1.17-4.09-.46-7.7,2.17-11.02,2.16-2.72,4.95-4.6,7.85-6.46,4.09-2.63,8.32-5.03,12.3-7.84,1.8-1.27,3.29-2.96,5.33-3.88.75-.33.71-.79.47-1.48-1.25-3.58-2.64-7.12-3.61-10.78-1-3.77-2.39-7.41-3.51-11.14-1.72-5.73-3.51-11.45-5.45-17.11-1.51-4.41-2.91-8.85-4.28-13.3-1.52-4.95-1.7-9.97-.1-14.96.29-.27.82-.58.41-.96-.45-.42-.72.07-.87.49-3.14,2.36-6.43,4.51-9.49,6.99-1.47,1.19-2.96,2.39-4.32,3.66-3.71,3.48-7.69,6.66-11.06,10.51-2.8,3.2-5.86,6.19-8.29,9.68-3.9,5.59-8.08,11.03-10.6,17.46-.88,2.25-1.91,4.44-2.61,6.76-.45,1.49-.47,2.84.69,3.97,1.02,1,1.28,2.4,2.03,3.55.59.91.08,1.95-.3,2.8-1.14,2.59-3.33,4.04-5.84,5.14-2.2.96-4.53,1.12-6.85,1.08-2.68-.05-4.97-1.31-7.02-2.94-1.07-.85-2.05-1.81-3-2.8-2.31-2.37-3.81-5.21-4.7-8.39-.36-1.29-.67-2.65-1.11-3.85-.87-2.41-.63-4.83-.52-7.17.28-6.09,1.89-11.94,4.32-17.54,1.48-3.42,3.23-6.71,4.97-10.01,1.82-3.45,4.37-6.41,6.62-9.56,3.31-4.62,6.87-9.06,10.94-13.05,3.14-3.09,6.2-6.28,9.51-9.17,2.67-2.34,5.69-4.3,8.52-6.47,4.09-3.14,8.38-5.99,12.79-8.63,3.69-2.2,7.43-4.35,11.29-6.29,4.56-2.29,9.13-4.48,13.87-6.36,4.04-1.61,8.17-2.97,12.28-4.37,3.87-1.32,7.83-2.3,11.83-3,3.64-.63,7.27-1.38,10.98-1.73,2.23-.21,4.52-.36,6.75-.56,2.58-.24,5.28-.67,7.89-.14.96.2,1.76-.31,2.69-.15,3.43.6,6.94.27,10.37,1.05,1.98.45,4.02.57,6.02.98,2.99.61,5.73,1.93,8.6,2.88,3.57,1.19,6.91,2.98,9.8,5.22,3.44,2.67,6.63,5.72,8.92,9.63,1.67,2.84,3.11,5.73,4.11,8.84.63,1.97.64,4.09,1.07,6.1.67,3.16-.42,6.18-.2,9.28.17,2.45-.93,4.73-1.47,7.09-1.71,7.49-5.23,14.16-9.38,20.57-2.48,3.83-5.24,7.44-8.04,11.04-3.59,4.63-7.92,8.56-11.94,12.79-2.45,2.58-5.16,4.89-7.83,7.68.82,0,1.4.12,1.9-.02,3.95-1.08,8.04-1.35,12.06-2.01,3.6-.59,7.21-.53,10.83-.66,3.56-.13,7.06.13,10.49.78,5.24,1.01,10.24,2.81,14.54,6.19,1.12.88,2.19,1.79,2.96,3,.74-.53.58-1.24.55-1.78-.15-2.95-.04-5.94.32-8.8.39-3.07.35-6.14.64-9.2.37-3.88.46-7.79.48-11.69.02-3.44.06-6.9.26-10.32.16-2.86.14-5.74.2-8.58.05-2.27.47-4.59.08-6.91-.17-1.02.04-2.11.12-3.17.2-2.8-.11-5.62-.24-8.42-.13-3-1.06-6.03.19-9.09.64-1.56.43-3.4,1.08-5.07,1.43-3.66,3.39-7.01,6.39-9.5,2.06-1.71,4.5-2.82,7.34-3.34,5.49-1.02,9.79.97,13.75,4.3,1.71,1.44,2.67,3.48,3.61,5.47,1.26,2.67,1.98,5.55,2.94,8.33.64,1.87,1.31,3.72,1.38,5.73.04,1.14.66,2.18,1.04,3.19,1.52,4.03,2.35,8.26,3.66,12.34.85,2.63,1.32,5.4,2.3,7.98,1.24,3.26,2.23,6.58,3.26,9.9.65,2.1,1.17,4.25,1.81,6.35.72,2.37,1.4,4.76,2.31,7.06,1.05,2.68,1.76,5.45,2.53,8.2.9,3.21,2.08,6.33,2.96,9.53.69,2.53,1.68,4.95,2.32,7.5.97,3.88,2.38,7.66,3.59,11.48.27.84.75,1.16,1.7,1.11,2.25-.12,4.54-.49,7.01.71-.34-1.44-.72-2.57-1.09-3.6-1.21-3.43-1.95-7-3.07-10.44-.81-2.49-1.46-5.03-2.38-7.5-1.06-2.84-1.73-5.82-2.55-8.74-.92-3.28-1.64-6.61-2.75-9.82-1.6-4.65-2.85-9.4-4.35-14.07-1.36-4.24-2.83-8.44-3.75-12.79-.84-3.99-.13-7.87,1.64-11.45.99-1.99,2.56-3.71,4.46-5.2-.64-.58-1.18-.31-1.74-.2-2.74.57-5.31,1.75-8.17,1.95-2.99.21-6.25-1.32-7.92-3.84-1.72-2.6-2.33-5.41-1.93-8.38.55-4.12,3.45-6.57,6.7-8.69,2.42-1.58,5.08-2.74,7.76-3.66,5.04-1.74,10.13-3.35,15.53-3.87,2.53-.24,5.09-.53,7.62-.97,3.09-.54,6.18.42,9.28.46,4.37.05,8.41,1.64,12.64,2.31,3.37.53,6.46,2.2,9.53,3.74,4.29,2.15,8.1,4.97,11.75,8.05.51.43,1.06.83,1.55,1.22.51-.11.4-.5.38-.75-.26-2.8.8-5.17,2.17-7.53,1.27-2.18,3.28-3.41,5.36-4.44,4.98-2.48,10.21-4.23,15.64-5.55,4.36-1.06,8.72-1.47,13.16-1.77,4.85-.32,9.58.34,14.36.84,4.93.51,9.62,1.95,14.27,3.43,3.8,1.21,7.32,3.13,10.67,5.35,3.68,2.44,7.21,5.05,10.19,8.34,2.74,3.02,5.47,6.01,7.42,9.69,1.3,2.46,2.74,4.86,4.06,7.3.69.02.68-.54.87-.9,1.67-3.24,4.27-5.48,7.66-6.69,4.83-1.73,9.87-.69,13.5,4.09,1.73,2.28,3.01,4.67,3.48,7.5.09.54.02,1.25.88,1.76.35-3.74,1.7-7.13,2.57-10.65,2.17-8.83,6.02-16.83,12.15-23.67,3.33-3.71,7.16-6.81,11.5-9.15,2.83-1.53,5.84-2.92,9.03-3.58,1.95-.4,3.96-.97,5.99-.59,1.19.22,2.16-.64,3.33-.47.33.05.58-.5.23-.86-.84-.84-.48-1.85-.47-2.82.02-4.11,1.09-7.9,3.45-11.27,1.65-2.35,3.65-4.37,5.96-6.13,2.42-1.85,4.95-3.51,7.6-4.99,3.03-1.7,6-3.46,9.27-4.74,1.34-.52,2.82-1,4.04-1.92,1.09-.83,2.49-1.04,3.73-1.58,2.86-1.26,5.89-2.13,8.86-3.12,2.72-.91,5.59-1.38,8.43-1.87,1.56-.27,3.09-.67,4.66-.94,2.75-.48,5.5-.99,8.27-1.32,3.08-.37,6.16-.71,9.26-.92,3.38-.23,6.73-.14,10.09-.25,3.14-.1,6.21.19,9.23.61,5.47.76,10.96,1.4,16.3,3.06,3.01.93,6.19,1.43,9.18,2.55,5.9,2.22,11.77,4.6,17.09,7.98,5.18,3.29,10.06,7.09,14.41,11.44,3.59,3.59,6.97,7.41,9.69,11.69,2.27,3.57,4.36,7.27,6.03,11.21,1.69,4.01,2.63,8.21,3.58,12.39.37,1.65.56,3.41.75,5.13.31,2.68.21,5.36.39,8.03.04.68.06,1.41-.14,2.05-.68,2.11-.45,4.31-.85,6.45-.94,5-2.28,9.87-4.28,14.55-.77,1.81-1.46,3.68-2.47,5.36-.8,1.33-.12,2.84-1.01,4.04.24.1.38.21.49.19.82-.2,1.18-1.53,2.33-.9,1.49.8,3.26,1.05,4.08,2.97.74,1.74.63,3.24.07,4.97-1.32,4.04-3.15,7.86-4.65,11.82-1.57,4.17-2.81,8.44-4.15,12.68-1.02,3.24-2.22,6.43-2.91,9.78-.64,3.12-1.73,6.21-1.97,9.33-.3,3.78-1.13,7.49-1.17,11.32-.05,4.22-.13,8.45.25,12.63.23,2.53.94,5.16,2.45,7.41.29.44.5.94.72,1.42.54,1.16,1.42,1.94,2.6,2.45.85.37,1.44.22,2.29-.25,2.92-1.62,4.68-4.28,6.58-6.83,3.2-4.3,5.42-9.12,7.6-13.97,1.46-3.25,2.81-6.58,3.8-9.97,1.12-3.84,2.24-7.69,3.27-11.56,1.14-4.29,1.62-8.7,2.94-12.96.72-2.32.69-4.88,1.07-7.33.66-4.21,1.03-8.48,1.6-12.69.61-4.6.47-9.24,1.2-13.78.51-3.16.47-6.34.65-9.48.19-3.37.62-6.74.65-10.14.03-3.24,1.34-6.35,2.79-9.29,2.25-4.59,5.79-7.37,10.89-8.44,6.74-1.42,11.16,1.69,14.02,6.29.73,1.16,1.44,2.34,1.53,3.89.9-.55.63-1.02.57-1.43-.58-4.17.86-7.91,2.59-11.52,1.72-3.59,4.26-6.42,8.26-7.61.18-.06.32-.28.47-.45.04-.04,0-.15,0-.33-3.17-.08-6.31.04-9.46.31-3.48.3-6.98.64-10.36,1.45-2.19.53-4.34.56-6.53.57-4.57.01-8.03-2.19-9.91-6.1-1.51-3.15-1.3-6.73.98-9.74,1.71-2.25,3.86-3.98,6.42-5.29,3.06-1.56,6.28-2.41,9.61-3.13,3.02-.66,6.06-1.24,9.03-2.19,1.54-.49,3.29-.66,4.95-.74,2.11-.1,4.17-.57,6.23-.89,1.87-.29,3.75-.49,5.62-.62,2.62-.18,5.26-.43,7.86-.67,2.7-.24,5.38-.18,8.04-.18,3,0,6.02.13,9.04.42,2.8.26,5.64.77,8.49.74,1.35-.01,2.7.42,4.06.63,6.01.96,11.88,2.44,17.5,4.84,5.03,2.14,10.11,4.25,14.5,7.52,3.38,2.53,6.78,5.12,9.53,8.42,3.82,4.58,6.76,9.62,8.73,15.27,1.05,3,1.76,6.03,1.95,9.17.18,2.99.5,5.96-.31,8.97-.58,2.18-.44,4.52-1.04,6.73-1.29,4.8-2.44,9.65-4.8,14.09-.29.21-.67.56-.38.81.38.33.44-.34.71-.48ZM411.52,533.83c-.83-.13-1.32.75-2.12.73-.15-.62.08-1.37-.99-1.51-.78-.1-1.21-.72-.53-1.5.77-.88-.44-1.19-.5-1.83.16-.05.3-.11.45-.13,1.02-.13,1.33-1.2,2.08-1.6.78-.41,1.6.91,2.51.14-.05-.43-.38-.65-.71-.82-3.52-1.81-7.2-3.24-10.95-4.44-5.61-1.78-11.31-3.25-17.12-4.23-2.46-.41-4.92-1.1-7.39-1.17-3.07-.09-6.07-.7-9.09-1.07-3.4-.41-6.81-.51-10.21-.53-3.03-.02-6.07-.12-9.1.02-3.77.18-7.55.3-11.31.68-2.68.27-5.33.76-8.04.77-.46,0-.96-.08-1.36.08-3.13,1.24-6.53,1.12-9.77,1.69-3.14.55-6.33,1.11-9.47,1.67-3.76.66-7.54,1.53-11.21,2.67-5.06,1.57-10.17,2.96-15.15,4.82-4.08,1.53-8.27,2.76-12.37,4.28-4.37,1.63-8.73,3.27-12.99,5.13-4.43,1.94-8.69,4.26-12.98,6.52-4.76,2.5-9.48,5.06-14,7.98-3.19,2.05-6.59,3.85-9.5,6.24-3.11,2.55-6.59,4.58-9.5,7.42-2.54,2.48-5.26,4.8-7.82,7.28-3.2,3.09-5.67,6.67-7.81,10.53-.86,1.55-1.55,3.17-1.8,4.86-.77,5.09-.25,8.37,5.42,10.89,2.84,1.26,5.77,2.01,8.94,2.29,3.57.31,7.11.45,10.62-.03,3.85-.54,7.68-1.18,11.54-1.65,2.26-.27,4.47-.73,6.69-1.23,4.06-.9,8.2-1.5,12.17-2.68,4.12-1.22,8.36-2.02,12.39-3.59,3.59-1.39,7.35-2.33,11-3.56,5.89-1.99,11.87-3.67,17.7-5.87,2.43-.92,5.02-1.59,7.44-2.55,3.49-1.39,7.09-2.49,10.52-4.06,1.06-.49,2.18-1.03,3.35-1.32,2.73-.67,5.31-1.76,7.91-2.78,3.24-1.27,6.39-2.81,9.65-3.95,3.55-1.24,6.95-2.84,10.48-4.13,3.37-1.23,6.69-2.74,10.03-4.08,3.47-1.4,7-2.72,10.46-4.12,3.78-1.53,7.53-3.2,11.29-4.81,5.11-2.19,10.28-4.23,15.43-6.33,4.08-1.67,8.14-3.38,12.24-4.99,4.33-1.7,8.71-3.28,13.05-4.95.31-.12.5-.55.74-.84,1.34-.07,2.64-.17,3.9-.81.86-.43,1.86-.58,2.67-1.21.6-.47,2.01.31,2.01-.85,0-.9-1.4-.63-2.08-1.1-.67-.47-1.44-.86-2.23-1.08-1.05-.28-1.99-1.05-3.15-.85-.24,1.09.97,1.07,1.23,1.73-.52.66-1.24-.31-1.66.25-.63.85.46.89.7,1.34.2.39.15.91-.35.71-1.97-.78-1.23.72-1.35,1.51ZM504.86,544.51c1.34.63,2.28,1.14,3.26,1.53,5.72,2.21,11.44,4.45,17.2,6.57,11.46,4.21,22.64,9.13,34.33,12.73,6.51,2.01,12.84,4.58,19.46,6.31,6,1.57,11.81,3.78,17.87,5.19,5.23,1.23,10.27,3.16,15.62,3.98,2.31.35,4.55,1.2,6.84,1.7,1.46.31,2.97.39,4.43.82,4.58,1.34,9.34,1.86,14.01,2.72,4.75.87,9.59,1.36,14.41,1.92.84.1,1.58.47,2.44.52,4.06.25,8.12.58,12.18.9.6.05,1.2.31,1.78.24,2.86-.36,5.69.23,8.59-.05,3.19-.31,6.47-.07,9.72-.3,1.74-.12,3.45-.55,5.19-.52,3.36.05,6.61-.69,9.83-1.41,3.33-.75,6.57-1.92,9.78-3.11,4.83-1.8,9.06-4.55,12.4-8.53,1.76-2.1,2.96-4.58,3.02-7.26.07-3.4-1.24-6.47-3.2-9.32-1.93-2.81-4.57-4.86-7.16-6.87-4.98-3.87-10.56-6.83-16.26-9.53-4.59-2.17-9.39-3.8-14.19-5.44-4.81-1.64-9.59-3.33-14.57-4.46-4.72-1.07-9.43-2.21-14.14-3.31-3.11-.73-6.28-1.07-9.41-1.63-1.42-.25-2.75-.85-4.22-.94-4.48-.26-8.83-1.39-13.28-1.93-3.6-.44-7.22-.97-10.82-1.17-3.55-.2-7.05-.82-10.6-1.03-3.32-.19-6.67-.44-9.98-.62-2.91-.15-5.87-.35-8.83-.29-2.78.06-5.63-.17-8.39-.08-4.53.14-9.07-.07-13.61.11-4.26.16-8.55.24-12.81.47-2.47.13-4.98.53-7.43.55-3.95.02-7.83.7-11.76.92-3.33.19-6.68.77-10.01,1.26-3.61.53-7.24.99-10.81,1.72-2.64.54-5.26,1.14-7.95,1.48-1.16.15-2.78-.02-3.46.66-1.25,1.24-2.5.59-3.74.73-.38.04-.8-.05-1.13.09-2.09.91-4.35,1.09-6.55,1.47-.72.13-1.42.25-2.13.43-1.35.34-2.69.82-4.01,1.07-1.94.36-3.78,1.21-6.24.92,3.29,2.41,16.13,7.75,18.92,8.01.29-.81-.98-.64-.83-1.52,1.14.27,1.86,0,2.42-1.3.33-.75,1.19-2.08,2.73-1.62.34.1.95-.19,1.23-.49.58-.64,1.34-.61,1.9-.37,2.16.91,3.93-.49,5.69-1.09,2.52-.86,4.46-.58,6.36,1.14.45.4,1.19.61.95,1.36-.25.77-.39,1.66-1.22,2.11-1.95,1.05-4.18,1.71-6.23,1.66-2.94-.07-5,1.27-7.58,2.89ZM827.16,430.35c-.45,2.58-1.35,4.59-1.19,6.82.04.6-.02,1.19-.19,1.8-1.26,4.69-1.61,9.52-1.92,14.34-.16,2.49-.47,4.98-.16,7.48.14,1.1-.43,2.06-.36,3.15.17,3.05.18,6.11.33,9.17.1,2.08.29,4.17.53,6.24.23,1.99.52,3.99.77,5.97.41,3.26,1.38,6.36,2.19,9.48.64,2.48,1.58,4.96,2.84,7.33,1.8,3.39,3.2,7.02,5.73,9.97,3.21,3.75,6.85,6.46,12.31,5.3,2.83-.6,5.29-1.81,7.54-3.46,3.25-2.4,5.83-5.47,8.38-8.59,2.24-2.74,3.72-5.92,5.5-8.92,3.21-5.41,6.23-10.95,8.28-16.89,2.4-6.96,4.99-13.89,6.39-21.18.57-2.98,1.69-5.88,2.01-8.87.4-3.76,1.23-7.45,1.69-11.21.43-3.45.81-6.95,1.01-10.39.27-4.53.4-9.11.09-13.7-.24-3.54-.52-7.08-.77-10.62-.24-3.35-1.07-6.57-1.7-9.83-.82-4.24-2.21-8.32-4-12.25-1.49-3.3-3.58-6.22-6.32-8.58-1.8-1.54-4-2.74-6.37-2.81-4.71-.14-8.96,1.4-12.22,4.92-2.68,2.9-5.12,6-7.17,9.41-1.8,2.99-3.11,6.22-4.81,9.25-2.21,3.95-4.28,7.94-5.77,12.25-1.5,4.35-1.49,8.69-.61,13.14.49,2.48,1.54,4.88.6,7.56-1.01,2.85-2.67,5.15-5.6,5.71-2.34.45-5.16,1.37-7.03-1.97ZM518.34,324.9c1.93.14,3.07.82,4.22,1.45,1.06.57,2.1,1.18,3.12,1.81,5.02,3.09,9.45,6.87,13.3,11.34,1.93,2.25,3.53,4.71,5.17,7.17,2.14,3.21,4.11,6.49,5.78,9.98,2.23,4.67,4.08,9.45,5.45,14.45.34,1.24.52,2.52.92,3.73,1.03,3.17,1.54,6.45,2.2,9.69.41,1.99.5,4.05.87,6.02.48,2.54.53,5.08.84,7.61.28,2.33.15,4.68.18,7.02.05,3.07.11,6.15-.04,9.22-.21,4.61-.22,9.25-1.1,13.8-.49,2.54-.05,5.16-.86,7.65-.12.36-.53.81.23,1.29.99-1.67,2.61-2.61,4.19-3.65,1.02-.67,2.18-1.07,3.15-1.84.63-.49.95-.82.96-1.78,0-1.22-.15-2.4-.34-3.56-.44-2.75-.33-5.54-.77-8.27-.12-.73-.25-1.41-.25-2.18.01-1.96.05-4.03-.43-5.87-.56-2.13-.52-4.31-.81-6.42-.3-2.11-.5-4.34-.61-6.53-.08-1.75-.17-3.59-.57-5.35-.48-2.12-.46-4.31-.81-6.46-.47-2.94-.37-6.01-.9-9-.25-1.4-.7-2.85-.66-4.21.07-2.08-.39-4.08-.58-6.1-.31-3.41-1.01-6.8-1.25-10.23-.18-2.61-.54-5.22-.92-7.78-.34-2.26-.1-4.47-.2-6.68-.09-1.95.88-3.96,1.58-5.89,2.24-6.18,9.65-11.04,16.52-9.36,4.79,1.18,8.21,4.04,10.09,8.62.94,2.28,1.65,4.63,2.21,7.06.65,2.84.76,5.67.85,8.53.02.52-.34,1.09-.22,1.56.63,2.68-.17,5.39.25,8.07.14.9-.27,1.71-.11,2.68.44,2.65-.41,5.32-.01,8.06.21,1.46.02,3.14-.08,4.68-.3,4.75-.07,9.49-.12,14.24-.07,6.68-.09,13.37-.02,20.06.03,2.61.15,5.26-.26,7.88-.07.42-.37.85.3,1.22.56-.44,1.1-.98,1.73-1.36,2.2-1.33,4.2-2.94,6.14-4.61,1.84-1.58,3.67-3.19,5.49-4.81,4.25-3.78,8.48-7.53,12.14-11.93,3.21-3.85,6.59-7.59,9.34-11.75,4.86-7.36,8.78-15.2,10.29-24.07.63-3.7.8-7.38.59-11.08-.09-1.63-.23-3.33-.76-4.86-.86-2.47-1.6-4.99-2.79-7.37-1.54-3.08-3.35-5.95-5.57-8.53-4.15-4.82-9.24-8.46-14.78-11.5-5.34-2.93-11.04-4.89-16.98-6.17-2.08-.45-4.15-1.11-6.25-1.25-3.52-.23-7.02-.75-10.57-.67-.75.02-1.49-.1-2.27-.01-3.61.4-7.24.53-10.86.88-2.19.21-4.31.76-6.48,1.04-2.16.28-4.24,1.1-6.37,1.59-1.84.42-3.63.97-5.44,1.5-2.3.67-4.55,1.48-6.84,2.13-2.56.73-4.97,1.8-7.42,2.74-2.65,1.02-5.16,2.45-7.68,3.8-1.52.82-3.04,1.64-5.16,2.57ZM491.83,352.73c-.74-.21-.95.27-1.26.59-4.42,4.59-6.23,10.44-7.75,16.38-.84,3.27-1.48,6.58-1.83,9.98-.41,4.05-.81,8.09-.8,12.16,0,3.11-.02,6.22.09,9.33.09,2.48.33,4.96.57,7.43.36,3.75.79,7.5,1.45,11.2.31,1.75.8,3.54,1.1,5.26.94,5.28,2.2,10.45,4.04,15.46,1.72,4.66,3.02,9.49,5.23,13.97,1.13,2.3,2.14,4.66,3.42,6.87,1.93,3.33,4.02,6.54,6.66,9.41,3.03,3.3,6.3,5.91,10.9,6.73,1.75.31,3.25.16,4.5-.74,1.9-1.35,3.85-2.7,5.17-4.75,2.41-3.74,3.81-7.92,5.37-12.03,1.08-2.85,1.2-5.93,1.98-8.81,1-3.71,1.25-7.47,1.66-11.22.38-3.54.26-7.1.39-10.65.21-5.64-.4-11.23-.87-16.82-.29-3.52-.94-7-1.51-10.49-.33-2-.78-3.99-1.25-5.97-.74-3.09-1.47-6.18-2.31-9.24-.74-2.68-1.61-5.3-2.5-7.93-.83-2.43-1.91-4.75-2.97-7.09-1.34-2.96-2.63-5.92-4.44-8.64-1.22-1.83-2.61-3.52-3.91-5.29-3.01-4.09-6.87-7.02-11.82-8.32-1.98-.52-4.02-.52-6.18.89,2.18.63.95,2.95,2.45,3.82-.43,1.43-.5,2.96-1.23,4.3-.3.55-.87.61-1.4.32-.81-.45-1.67-1-1.81-1.95-.21-1.49-1.37-2.66-1.14-4.17ZM145.04,530.63c.49.31.8-.1,1.14-.38,3.17-2.74,5.88-5.93,8.65-9.04,2.87-3.23,5.39-6.77,8.19-10.07,3.55-4.18,6.64-8.7,9.7-13.21,3.17-4.69,6.14-9.54,8.75-14.6,3.27-6.34,6.3-12.74,7.91-19.75,1.07-4.67,1.63-9.35.81-14.07-.69-3.99-2.61-7.25-6.56-8.93-.63-.27-1.29-.44-1.93-.69-3.23-1.28-6.7-1.66-10.04-1.48-3.54.19-7.14.7-10.62,1.69-1.83.52-3.79.69-5.53,1.3-2.46.88-4.99,1.55-7.46,2.4-2.57.88-5.08,1.91-7.64,2.82-3.67,1.31-7.18,3.05-10.82,4.45-1.11.43-1.53.91-1.16,1.99.91,2.64,1.31,5.41,1.96,8.1,1.02,4.24,2.31,8.41,3.12,12.72.9,4.82,2.24,9.56,3.48,14.32,1.41,5.41,2.94,10.8,4.41,16.2,1.17,4.3,2.5,8.57,3.44,12.92.75,3.47,1.1,7.02-1.32,10.2-.56.73-.91,1.48-2.08,1.38.55.59,1.2.2,1.62.68.29.34.71.3.84-.21.17-.7.57-1.21,1.24-.8.57.35.13.94-.13,1.42-.1.18-.22.42.06.64ZM690.6,445.4c-.76.23-.83.69-.95,1.12-.73,2.85-1.59,5.65-2.61,8.41-1.99,5.39-4.34,10.62-7.19,15.61-2.52,4.4-5.1,8.76-8.64,12.5-3.18,3.36-6.71,6.18-10.87,8.14-2.75,1.3-5.65,2.04-8.73,2.43-3.15.39-6.21.26-9.14-.55-6.29-1.74-10.98-5.86-14.22-11.38-2.41-4.12-3.98-8.65-4.64-13.47-.22-1.66-.19-3.36-.53-4.94-.59-2.78-.38-5.55-.23-8.27.23-4.35.93-8.69,1.56-13.01.66-4.5,2.13-8.82,3.13-13.24.88-3.91,2.39-7.66,3.87-11.4.16-.39.49-.87.18-1.48-4.14,3.16-7.87,6.64-12.01,9.6-2.91,2.08-5.62,4.45-8.67,6.3-2.72,1.65-5.49,3.27-8.17,4.96-3.98,2.52-8.04,4.85-12.2,7.01-.84.44-1.72,1.03-1.59,2.03.45,3.41.13,6.82.25,10.22.08,2.28-.13,4.56.12,6.81.26,2.4.05,4.79.22,7.2.27,3.72-.08,7.48.13,11.22.18,3.13.05,6.21-1.98,8.89-1.18,1.55-2.75,2.61-4.32,3.68-.42.29-.75.54-.59,1.07.16.54.67.62,1.11.62.91,0,1.79-.23,2.72-.22,2.88.03,5.77-.11,8.66-.13,4.7-.04,9.41-.09,14.11-.02,2.49.04,4.99.07,7.47.07,3.27,0,6.53.16,9.79.15,3.61-.01,7.23.23,10.8.53,4.28.35,8.58.39,12.86.72,1.76.14,3.43.8,5.16.81,2.96.02,5.83.84,8.78.84,2.37,0,4.65.76,7,.81,3.18.07,6.28.79,9.41,1.2,2.33.31,4.62,1.02,6.94,1.13,1.69.08,3.27.41,4.88.8,1.48.35,2.97.65,4.46.96.61.13,1.08-.23,1.33-.69.26-.48-.18-.85-.52-1.15-.91-.81-2.09-1.44-2.7-2.43-.9-1.47-1.9-2.92-2.43-4.61-.45-1.44-.03-3.03-.83-4.39.5-3.53-.38-7.02-.23-10.54.18-4.35-.29-8.69-.27-13.04,0-3.36-.07-6.76-.29-10.13-.23-3.54-.21-7.09-.38-10.74ZM741.52,418.28c.52-.02.78.04.96-.05,1.99-1.07,4.07-2.01,5.93-3.27,4.63-3.14,9.42-6.05,13.89-9.41,2.61-1.96,5.07-4.09,7.47-6.29,2.18-2,4.53-3.81,6.58-5.94,2.06-2.13,3.99-4.38,5.95-6.6,4.19-4.74,7.34-10.01,9.44-15.93.86-2.43,1.85-4.93,1.69-7.53-.13-2.18-.03-4.39-.72-6.59-.52-1.67-1.2-3.22-2.01-4.69-2.11-3.82-5.55-6.41-8.98-8.92-3.52-2.58-7.56-4.23-11.59-5.84-3.87-1.55-7.76-3.06-11.89-3.76-4.45-.75-8.89-1.6-13.42-1.88-1.63-.1-3.21-.12-4.88-.02.22.78.71,1,1.18,1.24,1.1.56,2.07,1.32,2.79,2.3,3.28,4.48,4.88,9.58,4.81,15.07-.04,2.92-.17,5.87-.6,8.81-.67,4.67-1.2,9.38-1.48,14.09-.28,4.71-.89,9.39-1.55,14.04-.51,3.56-.88,7.16-1.39,10.72-.47,3.25-.79,6.58-1.03,9.88-.09,1.27-.16,2.56-.44,3.78-.52,2.24.04,4.53-.72,6.8ZM97.67,358.84c.14.21.2.41.31.44,6.41,1.58,10.15,5.93,12.41,11.86,1.18,3.1,1.8,6.34,2.54,9.56.82,3.6,1.68,7.18,2.44,10.79.34,1.63.32,3.41.83,4.92,1.05,3.09,1.42,6.32,2.29,9.44.37,1.33.88,2.7,1.06,4.15.34,2.86,1.35,5.6,1.65,8.48.13,1.28.91,1.46,1.89.61,1.49-1.29,2.98-2.58,4.4-3.94,2.4-2.3,4.62-4.8,7.14-6.95,2.72-2.33,5.14-4.96,7.52-7.59,1.45-1.61,2.73-3.42,4.13-5.1,4.72-5.68,8.73-11.84,12.34-18.26,1.78-3.16,2.7-6.63,3.64-10.1.67-2.46.76-4.92.53-7.38-.25-2.71-1.37-5.05-3.43-6.98-1.86-1.74-4.17-2.33-6.43-3.23-4.12-1.64-8.45-1.68-12.71-1.88-1.74-.08-3.65-.18-5.36.26-2.12.55-4.29.49-6.42.9-3.2.62-6.41,1.3-9.51,2.17-2.5.7-5.03,1.52-7.52,2.36-3.52,1.2-6.98,2.54-10.39,3.96-1.07.44-2.54.41-3.35,1.52ZM359.43,353.32c1.3,1.32,2.52,2.1,3.18,3.37.87,1.68,1.88,3.29,2.61,5.02,1.05,2.5,2.06,5.08,2.13,7.81.05,1.91.42,3.8.81,5.58.47,2.14.34,4.31.8,6.45.45,2.12.71,4.44.98,6.66.38,3.17,1.14,6.34,1.56,9.5.5,3.75,1.46,7.4,1.93,11.15.26,2.01.79,3.99,1.07,6.01.41,2.94,1.02,5.85,1.58,9,2.65-2.2,5.21-4.1,7.51-6.27,3.75-3.54,7.35-7.25,10.51-11.33,4.19-5.41,7.98-11.09,9.51-17.9.67-2.98,1.4-5.95,1.06-9.14-.59-5.5-2.99-10.01-6.87-13.72-3.64-3.48-7.82-6.26-12.58-8.04-5.8-2.17-11.79-3.47-17.99-3.95-2.46-.19-4.88-.07-7.79-.19ZM387.63,502.44c.49.22.75.39,1.03.45,1.93.41,3.87.78,5.8,1.19,4.67.98,9.22,2.43,13.85,3.58,4.85,1.2,9.52,2.97,14.35,4.23,5.41,1.42,10.6,3.63,15.81,5.71,2.89,1.15,5.78,2.31,8.61,3.61.59.27,1.18.95,2.08.31,2.18-1.56,4.88-1.93,7.35-2.71,2.34-.74,4.62-1.81,7.12-2.05.32-.03.68-.36.9-.65.31-.4.35-1.02-.3-1-1.7.07-3.3-.71-4.93-.68-2.24.03-4.12-.69-5.91-1.84-4.61-2.97-8.51-6.82-12.66-10.35-3.05-2.6-5.76-5.63-8.88-8.14-4.91-3.94-9.34-8.42-14.27-12.32-3.8-3.01-7.37-6.31-11.34-9.12-6.76-4.79-13.79-9.11-21.35-12.55-.4-.18-.81-.57-1.23-.14-.35.37-.23.89-.07,1.31.38,1,.69,2,.94,3.05.66,2.78,1.26,5.58,2.18,8.27.7,2.03,1.07,4.12,1.36,6.18.18,1.24.52,2.11,1.3,2.95.98,1.05,1.91,2.14,2.91,3.17,3.8,3.9,2.83,10.29.02,13.84-1.24,1.57-2.75,2.74-4.69,3.71ZM276.68,356.99c.23.64.76.62,1.15.81,4.1,2.03,6.68,5.39,8.34,9.55,1.4,3.53,1.76,7.32,2.63,10.98.6,2.53.87,5.18,1.37,7.77.51,2.65.92,5.33,1.41,7.99.71,3.9,1.5,7.79,2.03,11.73.48,3.59,1.4,7.1,2.03,10.67.62,3.54,1.92,6.97,2.15,10.61.02.32.05.62.36.77.42.2.68-.07.97-.34.95-.87,1.85-1.78,2.77-2.68,3.31-3.24,6.39-6.67,9.16-10.38,1.36-1.82,2.42-3.84,3.71-5.71,1.98-2.88,3.33-6.07,4.41-9.34,1.65-4.97,2.31-10.07,1.47-15.34-.61-3.84-2.07-7.28-4.19-10.46-1.88-2.8-4.45-4.96-7-7.12-2.93-2.48-6.38-4.08-9.8-5.7-3.09-1.47-6.31-2.56-9.7-3.04-1.8-.25-3.62-.38-5.4-.78-.74-.17-1.59-.39-2.25-.17-1.63.53-3.16.09-4.73-.14-.28-.04-.6-.1-.88.31ZM807.81,398.64c-1.28,1.02-1.82,2.59-2.88,3.75-2.68,2.89-5.29,5.85-8.31,8.4-1.91,1.61-3.66,3.41-5.59,5-2.97,2.44-6.03,4.76-9.18,6.98-2.85,2.01-5.72,3.97-8.67,5.8-2.89,1.8-5.82,3.56-8.81,5.17-2.79,1.51-5.57,3.06-8.55,4.18-.88.33-1.53.92-2.14,1.55.34.64.85.93,1.4,1.24,2.44,1.39,4.81,2.87,7.04,4.6,3.24,2.5,6.43,5.06,9.59,7.68,2.83,2.34,5.48,4.84,8.14,7.34,2.44,2.29,4.65,4.83,6.98,7.23,2.23,2.29,4.48,4.53,6.46,7.05,1.76,2.24,3.81,4.26,5.77,6.42.47-.58.42-1.2.22-1.59-1.21-2.39-.61-5.06-1.28-7.53-.49-1.82-.35-3.74-.59-5.58-.37-2.89-.25-5.76-.31-8.64-.06-2.89.16-5.79.08-8.67-.08-2.83,0-5.7.49-8.41.66-3.64,1.02-7.33,1.6-10.97,1.04-6.54,2.91-12.85,4.56-19.22.95-3.66,2.28-7.23,4-10.62.18-.35.31-.69-.02-1.14ZM376.25,500.61c.13-.41-.1-.47-.29-.6-3.37-2.2-6.87-4.23-10.09-6.64-7.17-5.37-14.82-10.04-22.18-15.13-3.95-2.73-8.08-5.15-12.22-7.55-8.06-4.67-16.16-9.29-25.44-11.21-.38-.08-.74-.24-1.08.06-.45.39-.23.84-.06,1.25.58,1.42.81,2.93,1.19,4.4.8,3.14,1.44,6.32,2.46,9.39.84,2.53,1.57,5.06,2.23,7.63.32,1.23.51,2.51.95,3.71,1.79,4.85,1.48,9.36-2.18,13.31-.27.29-.54.6-.37.99.18.39.63.34,1,.39,1.48.21,2.86-.36,4.3-.47,3.78-.29,7.55-.74,11.36-.82,3.92-.08,7.83-.36,11.74-.67,1.75-.14,3.46.31,5.21.1,2.39-.28,4.79.18,7.2.03,1.65-.1,3.33.28,5.02.21,2.18-.1,4.41.07,6.53.3,3.68.41,7.42.27,11.06,1.05,1.22.26,2.47.45,3.69.27ZM466.52,515.05c.9,0,1.86.21,2.69-.04,3.04-.9,6.08-1.75,9.16-2.49,5.28-1.27,10.51-2.79,15.82-3.94,1.78-.39,3.64-.64,5.31-1.26,3.31-1.23,6.81-1.38,10.16-2.34,1.75-.5,2.21-1.18,1.3-2.83-.19-.35-.46-.75-.15-1.03.76-.69.47-1.79,1.01-2.47.89-1.11.26-1.46-.67-1.73-1.39-.39-2.79-.85-4.18-1.08-4.92-.79-9.09-3.17-13.19-5.77-5.27-3.34-9.57-7.76-13.64-12.39-1.47-1.67-2.9-3.47-4.1-5.43-1.54-2.52-3.17-4.99-4.71-7.52-1.73-2.85-3.35-5.75-4.8-8.75-1.21-2.5-2.39-5.03-3.46-7.59-.95-2.29-1.67-4.68-2.4-7.04-.46-1.5-.97-3.02-1.55-4.46-.73-1.83-1.32-3.71-1.62-5.6-.28-1.73-1.05-3.3-1.25-5.06-.1-.9-.58-1.84-.62-2.83-.02-.46-.16-.92-.99-.95.24,2.85.44,5.68.72,8.5.21,2.11.6,4.2.74,6.31.13,1.94.25,3.94.67,5.77.42,1.84.76,3.73.97,5.55.66,5.79,1.87,11.46,3.11,17.13,1.07,4.93,2.8,9.7,3.97,14.63.71,2.99.32,5.7-1.35,8.23-.42.63-.52,1.02.12,1.52.47.37.8.93,1.29,1.27,2.35,1.61,4.22,3.67,5.81,6,1.41,2.06,2.16,4.47,2.17,6.86,0,2.07-.74,4.15-1.96,5.99-1.2,1.8-2.73,3.23-4.38,4.86ZM556.71,445.62c-.31,1.52-.55,3-.91,4.44-1.29,5.06-2.9,10.04-4.87,14.85-3.06,7.48-6.47,14.78-12.11,20.86-5.17,5.57-11.04,9.68-18.6,11.09-.96.18-1.64.62-2.03,1.48,1.59,1.58,1.54,2.08-.17,3.37-.55.41-1.56.23-1.74,1.33,1.44.3,2.73-.3,4.04-.34,3.33-.1,6.51-1.14,9.81-1.44,2.74-.25,5.43-1.05,8.19-1.38,5.12-.62,10.22-1.36,15.31-2.13,1.26-.19,2.6-.45,3.78-.47,2.79-.04,5.53-.52,8.3-.64,4.41-.2,8.81-.68,13.34-1.05-.28-1.07-.93-1.66-1.63-2.04-4.35-2.33-5.57-6.46-6.22-10.85-.45-3.11-.44-6.26-.77-9.4-.35-3.33-.46-6.7-.8-10.05-.34-3.36-.48-6.75-.69-10.13-.08-1.22-.3-1.48-1.62-1.28-3.32.51-8.29-1.37-9.58-5.12-.13-.38-.22-.92-1.05-1.1ZM426.23,399.31c-1.01.77-.94,1.79-1.29,2.6-2.16,4.96-5.12,9.42-8.12,13.9-2.47,3.69-5.5,6.85-8.51,9.99-3.13,3.26-6.45,6.4-10.23,8.99-1.24.85-2.55,1.66-3.67,2.7-1.05.97-1.05,1.09.2,1.63,4.6,2,9.27,3.84,13.64,6.33,6.32,3.6,12.35,7.67,18.25,11.9,5.23,3.75,10.48,7.5,15.13,12,.16.15.37.24.63,0-7.38-22.81-12.7-46.14-16.04-70.04ZM363.07,461.67c-1.11-1.97-1.36-3.61-1.69-5.24-.31-1.54-.87-1.89-2.41-2-3.06-.22-5.93-.64-7.94-3.53-1.52-2.19-2.38-7.43-.82-9.81,1.27-1.94,2.7-3.62,4.71-4.78.55-.31.73-.55.53-1.23-.51-1.71-.88-3.47-1.28-5.21-.61-2.65-1.35-5.27-1.95-7.92-.46-2.02-1.14-4.02-1.77-6.01-.63-1.96-.96-3.97-1.59-5.93-.79-2.47-1.23-5.06-2-7.54-.4-1.28-.3-2.78-1.24-3.94-1.11.84-.22,1.77-.49,2.66-1.3,4.38-3.13,8.51-5.42,12.44-3.33,5.74-7.52,10.86-11.79,15.91-1.66,1.97-3.53,3.83-5.55,5.43-1.52,1.19-2.74,2.5-3.82,4.18,1.39.55,2.63,1.1,3.91,1.54,5.58,1.93,11,4.18,16.18,7.08,6.66,3.74,13.47,7.22,19.86,11.44,1.26.84,2.47,1.91,4.58,2.45ZM230.6,401.14c-1.24,1.06-.14,2.07-.42,2.98-1.18,3.86-1.14,7.9-1.72,11.84-.46,3.15-.95,6.32-1.09,9.49-.16,3.54-.54,7.09-1.04,10.56-.64,4.49-.63,9.03-1.49,13.48-.14.73.43,1.07.98.72,2-1.27,4.23-1.88,6.47-2.47,3.22-.84,6.44-1.65,9.67-2.45,2.24-.56,4.48-1.11,6.63-1.89-5.73-14.25-11.96-28.13-18-42.26ZM722.04,507.26c-.83-1.85-2.35-2.68-3.26-4.1-1.94-3.03-2.7-6.19-2.26-9.69.07-.53.2-1.02.15-1.57-.25-3.05-.07-6.11.08-9.16.12-2.56.24-5.15.21-7.68-.04-3.67.15-7.32.28-10.97.03-.68.03-1.35.03-2.02,0-2.91.08-5.83.31-8.73.22-2.73.31-2.7-2.37-3.8-.63-.26-1.19-.84-1.82-.91-.91-.11-1.29-1.75-2.3-.93-.68.56-.03,1.77-.61,2.55-.04.05-.02.15,0,.23.65,2.92-.34,5.78-.41,8.69-.09,4.21-.42,8.43-.73,12.64-.2,2.7.02,5.4-.27,8.09-.07.68-.14,1.38-.05,2.05.42,3.28.85,6.51.42,9.87-.63,4.88-2.92,8.32-7.39,10.32-.41.18-.91.18-1.14.68.21.65.71.87,1.34,1.01,1.76.39,3.55.58,5.32.85,3.27.5,6.48,1.51,9.8,1.88,1.46.16,2.83.92,4.66.7ZM279.24,457.27c-1.44.39-1.89,1-1.44,2.5.27.87.65,1.67.93,2.53,1.3,4.07,2.72,8.11,4.12,12.15.43,1.23,1.08,2.34,1.46,3.57.98,3.19,1.94,6.4,2.89,9.6.62,2.09,1.5,4.16,1.78,6.29.41,3.17-.29,6.19-2.52,8.69-.36.4-.74.77-1.05,1.21-.29.42-.05.75.39.84.28.06.6-.03.9-.08,3.24-.6,6.46-1.32,9.71-1.77,1.93-.26,3.71-1.3,5.72-1.08.36.04.83.05.97-.4.19-.6-.3-.79-.73-.93-3.27-1.06-4.86-3.7-6.14-6.6-1.4-3.19-2.44-6.51-3.54-9.81-1.99-5.97-4.11-11.89-5.9-17.91-.38-1.26-1.07-2.46-1.13-3.86-.08-1.81-.58-2.28-2.29-1.91-1.19.26-1.86-.25-2.65-.85-.75-.57-1.22-1.31-1.49-2.17ZM717.56,371.1c-.23,1.1-.74,2.23-.62,3.3.41,3.7-.65,7.27-.91,10.89-.23,3.25-.75,6.53-1.1,9.8-.28,2.68-.42,5.37-.75,8.05-.43,3.47-.57,6.99-.93,10.46-.41,3.9-.74,7.82-1.1,11.72-.17,1.92-.32,3.86-.45,5.79-.03.46-.3,1.08.47,1.43,1.38-1.02,2.64-2.48,4.21-2.98,2.03-.64,1.89-1.87,1.67-3.3-.33-2.16-.12-4.37-.05-6.49.11-3.49.08-6.99.19-10.48.13-4.11.02-8.23,0-12.34-.01-2.88-.05-5.76-.06-8.65,0-3.24-.1-6.49.06-9.72.12-2.32-.29-4.63.03-6.95.02-.17-.02-.46-.67-.55ZM341.45,355.36c-.32-.53-.76-.55-1.08-.45-1.15.35-2.26.66-3.51.33-.54-.15-.85.51-.41.88,1.44,1.24,1.59,3.33,3.15,4.68.7-1.93.58-3.98,1.86-5.44ZM612.98,510.51c.16.84.08,1.66,1,1.78.47.06.78-.58.72-.96-.16-.86-.96-.62-1.72-.82ZM454.49,419.94c-.26.05-.29.27-.28.46.02.21.05.51.18.59.28.16.35-.12.36-.33.02-.27.06-.57-.27-.72ZM498.32,565.61c-.23.05-.4.18-.36.44.05.33.31.5.61.47.09,0,.19-.36.19-.56,0-.23-.16-.4-.44-.35ZM499.48,568.52c-.25.08-.3.29-.28.49.03.27.03.63.47.57.22-.03.41-.17.35-.44-.06-.3-.24-.52-.54-.61ZM472.89,557.25c.08-.17.04-.29-.14-.32-.12-.01-.32,0-.37.07-.14.2-.02.38.19.42.09.02.21-.11.32-.17ZM462.85,557.59c-.07-.08-.12-.24-.21-.26-.19-.04-.43-.03-.46.23-.01.1.11.29.21.32.22.08.39-.04.47-.29ZM471.97,559.39c-.06-.12-.09-.3-.18-.33-.1-.04-.29.02-.37.11-.13.14-.05.29.14.3.13,0,.27-.05.41-.08ZM476.46,559.04c.12.05.27.15.37.12.09-.03.14-.2.21-.31-.13-.03-.26-.09-.4-.09-.2,0-.26.11-.18.29ZM466.69,559.18c-.12.06-.24.12-.36.18.06.12.1.33.2.36.25.08.43-.07.45-.32,0-.06-.19-.14-.29-.21ZM466,561.67c-.06-.11-.09-.29-.18-.32-.1-.04-.29.02-.37.1-.13.14-.05.28.14.29.13,0,.27-.05.4-.07ZM471.1,561.36c.1-.18.06-.31-.15-.33-.14-.01-.34,0-.41.09-.16.22-.02.4.21.44.1.02.23-.12.35-.19ZM475.2,562.97c-.13-.03-.26-.09-.4-.09-.2,0-.28.13-.16.28.07.09.26.15.36.12.09-.03.14-.2.2-.31ZM481.48,558.9c.13.03.26.09.4.09.2,0,.28-.13.16-.28-.07-.09-.26-.15-.36-.12-.09.03-.14.2-.2.31ZM501.84,570.21c.06-.3-.13-.43-.37-.44-.12,0-.3.1-.35.2-.11.22-.05.47.19.54.22.06.43-.06.53-.29ZM460.31,551.83c.06-.11.13-.22.19-.34-.13-.03-.27-.09-.4-.09-.2,0-.28.14-.16.28.07.09.24.1.37.14ZM473.8,555.04c-.13-.05-.27-.15-.37-.12-.09.03-.14.21-.21.32.13.04.27.1.4.1.19,0,.25-.12.18-.3ZM463.71,555.7c-.06-.11-.1-.29-.19-.32-.1-.03-.3.03-.37.12-.12.15-.03.3.16.3.13,0,.27-.06.4-.1ZM465.26,551.74c.13-.05.37-.07.38-.15.06-.23-.08-.43-.33-.45-.12,0-.32.08-.37.17-.12.27.08.37.31.43ZM468.53,555.05c-.12.06-.24.12-.36.18.06.12.1.33.2.36.25.08.43-.07.45-.32,0-.06-.19-.14-.29-.21ZM469.73,553.38c-.06-.11-.1-.28-.19-.31-.1-.04-.31,0-.36.09-.16.23.01.35.22.37.11,0,.22-.09.33-.14ZM477.95,557.06c-.06-.11-.11-.28-.19-.31-.1-.03-.29.03-.36.11-.12.15-.04.29.16.29.13,0,.27-.06.4-.09ZM467.83,557.33c-.12-.04-.27-.15-.37-.12-.09.03-.14.2-.21.31.13.03.26.09.4.1.2,0,.26-.11.18-.29ZM461.02,549.39c-.06.11-.13.23-.19.34.13.03.27.1.4.09.19,0,.28-.15.16-.3-.07-.09-.24-.1-.37-.14ZM464.3,553.77c.12-.06.28-.09.36-.19.12-.15.06-.3-.11-.34-.21-.05-.44-.04-.49.22-.01.09.15.2.24.31ZM463.42,550.74c.14-.13.15-.26-.02-.36-.1-.05-.27-.1-.34-.05-.21.13-.23.33,0,.46.08.05.24-.03.36-.05ZM467.64,552.33c-.09-.16-.14-.41-.39-.33-.1.03-.23.21-.23.32,0,.22.14.39.39.32.1-.03.16-.2.24-.31Z"/>
        <path class="cls-1" d="M453.42,321.97c.86,4.19-1.07,7.85-3.19,11.34-2.13,3.5-5.13,6.26-8.96,7.79-1.99.79-4.13,1.3-6.36,1.5-5.32.48-9.59-1.64-13.41-4.97-3.77-3.3-5.65-7.63-6.25-12.53-.77-6.2,1.35-11.54,5.13-16.3,1.57-1.97,3.74-3.2,5.98-4.38,3.06-1.61,6.4-2.03,9.61-1.71,4.45.44,8.76,1.79,11.72,5.66.87,1.14,1.89,2.15,2.7,3.36,2.05,3.07,2.91,6.44,3.04,10.24Z"/>
        <path class="cls-1" d="M48.93,489.99c3.72-.4,7.66,1.01,10.9,4.2,2.76,2.72,4.89,5.84,5.39,9.84.74,5.91-1.34,10.83-5.31,15.07-3.12,3.34-7.14,4.85-11.59,4.83-12.55-.06-16.85-8.96-17.37-16.48,1.33-11.29,6.97-17.2,17.97-17.46ZM50.72,505.65c0-.27-.18-.42-.38-.51-.42-.18-.61.21-.59.44.09.72-.06,1.16-.85,1.27-.77.11-.97-1.01-1.76-.76-1.06.33.26,1.44-.6,1.86-.2.1-.4.22-.57.37-.28.24-.24.56-.08.82.16.26.43.41.77.29.33-.11.49-.38.51-.68.01-.21-.18-.43-.19-.65-.04-.63.47-.73.89-.69.54.05.73.49.6,1-.05.2-.19.45-.36.55-.69.4-.55.88-.06,1.25.61.46,1.04.04,1.14-.53.2-1.1.6-1.53,1.65-.78.34.24.74.18.89-.31.13-.42-.24-.5-.49-.6-.97-.4-1.78-.82-.65-1.93.09-.09.08-.28.12-.41ZM48.8,504.77c-.06-.32-.26-.59-.56-.59-.3,0-.55.27-.55.59,0,.32.23.59.55.59.32,0,.5-.26.56-.58ZM45.94,505.82c.05-.25-.08-.4-.29-.49-.35-.15-.57.07-.69.33-.15.31-.05.58.33.63.35.05.5-.22.65-.47ZM50.43,510.09c-.25-.04-.39.11-.44.32-.07.28.15.35.34.42.26.09.38-.08.42-.3.04-.23-.1-.38-.32-.45Z"/>
        <path class="cls-1" d="M963.68,442.72c.35,6.17-3.03,10.21-7.34,13.52-2.45,1.88-5.49,2.66-8.67,2.85-6.13.37-10.79-2.37-14.15-7.09-2.66-3.74-3.57-8.03-2.4-12.79.81-3.29,2.27-6.08,4.33-8.62,1.16-1.43,2.83-2.41,4.43-3.13,2.76-1.24,5.79-2,8.88-1.46,5.04.88,9.5,3.01,12.27,7.48,1.74,2.8,3.12,5.91,2.65,9.24ZM947.76,441.84c-.12-.24-.17-.55-.32-.62-.75-.34-1.52-.77-2.32-.86-.73-.09-.77.83-1.1,1.31-1.34,1.95-1.17,3.25.6,4.33.61.37,1.28.65,1.37-.6.05-.79.49-1.33,1.32-.53.44.42,1.01.67,1.28,0,.23-.55.45-1.42-.79-1.35-.62.04-.74-.4-.5-.92.13-.27.3-.51.45-.77ZM947.12,445.87c-.28.01-.37.22-.37.44,0,.24.14.44.4.44.25,0,.42-.16.4-.42-.02-.24-.19-.39-.43-.46ZM949.04,442.78c-.05-.12-.07-.29-.16-.35-.07-.05-.28,0-.34.08-.16.2-.06.37.17.41.1.02.22-.09.33-.14Z"/>
        <path class="cls-1" d="M756.2,602.04c-.02-1.41,1.32-2.8,2.73-2.95.36-.04.61.16.74.42.3.62.74,1.06,1.25,1.54.93.86.65,3.25-.33,4.24-.21.21-.51.33-.73.52-.47.42-.85,1.4-1.6.72-.66-.6-2.27-.53-1.72-2.19.26-.79-.62-1.54-.34-2.3Z"/>
        <path class="cls-1" d="M228.22,647.47c.81,1.54,1.49.52,2.28.2.91-.36,1,.74,1.55,1.06.52.31.69.76.34,1.35-.58.98-1.38,1.57-2.37,2.19-1.2.75-2.17.84-3.37.45-1.32-.44-1.54-1.24-.99-2.54.52-1.23,1.76-1.57,2.56-2.71Z"/>
        <path class="cls-1" d="M976.54,451.2c-.4,1.22-.38,2.2-1.01,3.07-1.03,1.43-2.09,1.67-3.23.29-.71-.86-1.23-1.92-1.64-2.96-.43-1.11.53-2.34,1.73-2.19.59.07.99-.1,1.49-.28,1.3-.47,2.85.99,2.67,2.07Z"/>
        <path class="cls-1" d="M55.31,600.01c-.81.28-1.45.08-1.45-1.14,0-.26-.23-.56-.42-.77-.35-.4-.89-.75-.66-1.34.24-.63.57-1.26,1.01-1.76.58-.65,2.38-.3,3.14.46.68.69,1.47,1.2,1.16,2.47-.37,1.5-.97,2.12-2.79,2.08Z"/>
        <path class="cls-1" d="M962.08,458.59c1.31-.42,2.01.61,2.79,1.2.75.57-.15,2.74-1.29,3.08-.78.23-1.64.26-2.47.28-.54.01-1.88-1.77-1.85-2.34.05-.98,1.32-2.3,2.19-2.29.23,0,.45.04.63.06Z"/>
        <path class="cls-1" d="M139.57,630.41c-.29-.63-.04-1.35-.44-1.99-.29-.46.31-2.64.69-2.83.88-.44,1.61,0,2.34.45,1.5.94,1.79,2.36.76,3.78-.26.35-.61.42-1.01.35-1.07-.18-1.74-.11-2.33.24Z"/>
        <path class="cls-1" d="M948.31,624.01c.95-.17,1.79-.06,2.08-.41,1.27-1.5,2.05.57,3.11.33.25-.06.27.32.23.52-.25,1.08.64,1.57,1.53,2.4-2.04.31-3.75-.52-5.56.29.13-1.31-.57-2.1-1.39-3.14Z"/>
        <path class="cls-1" d="M44.22,439.8c-.06.79-1.18,2.27-1.64,2.25-1.15-.05-2.46-.83-2.45-1.45.01-.82,1.33-2.25,1.97-2,.75.3,1.91.06,2.12,1.2Z"/>
        <path class="cls-1" d="M34.46,448.69c-1.06,0-2.15-.8-2.14-1.56,0-.82,1.09-2.08,1.76-2.05.67.03,1.87,1.08,1.83,1.61-.09,1.16-.7,2-1.45,2Z"/>
        <path class="cls-1" d="M808.22,313.47c0,.51-.14.92-.72.98-.62.06-2.48-1.35-2.49-1.94-.01-.69.03-1.51.67-1.82.67-.33,1,.45,1.4.88.52.56,1.01,1.13,1.14,1.9Z"/>
        <path class="cls-1" d="M237.2,650.85c0,.91-1.19,2.16-2.03,2.07-.76-.08-1.24-.48-1.18-1.35.07-1.17.64-1.94,1.56-1.78.62.11,1.67-.16,1.65,1.06Z"/>
        <path class="cls-1" d="M460.76,597.77c-.51,1.47-1.52,1.85-2.82,1.71-.83-.09-.98-.51-.61-1.23.98-1.94,1.37-2.01,3.43-.47Z"/>
        <path class="cls-1" d="M949.26,634.26c-.31-.44-.63-.86-.89-1.31-.31-.54-.54-1.16-.09-1.69.4-.47,2.17.02,2.62.62.57.76.13,1.23-.4,1.73-.34.32-.73.51-1.24.64Z"/>
        <path class="cls-1" d="M497.3,296.41c-.05-.76,0-1.52,1.05-1.62.67-.06,1.3.65,1.23,1.34-.07.69-1.06,1.88-1.53,1.78-.79-.17-.76-.83-.75-1.5Z"/>
        <path class="cls-1" d="M50.21,603.55c-.75-.22-1.21-.71-1.25-1.43-.04-.61.18-1.22.86-1.4.65-.17,1.32.46,1.31,1.18,0,.71-.22,1.32-.92,1.66Z"/>
        <path class="cls-1" d="M222.54,654.89c-.54-.18-.88-.56-.92-1.14-.04-.63.3-.98.94-1.02.48-.03.94.07,1.09.59.12.42-.72,1.56-1.1,1.57Z"/>
        <path class="cls-1" d="M745.91,614.55c.53.07,1.18.07,1.25.89.03.41-.1.81-.58.76-.6-.06-1.2-.25-1.36-.95-.11-.48.19-.66.69-.7Z"/>
        <path class="cls-1" d="M654.94,305.46c.83-.16,1.52.12,2.18.4.36.16.46.55.19.93-.21.29-.54.36-.76.15-.5-.5-1.27-.72-1.61-1.48Z"/>
        <path class="cls-1" d="M991.28,593.35c.54.1,1,.34.94.86-.07.63-.47,1.25-1.14,1.19-.62-.05-.65-.72-.63-1.27.02-.57.35-.78.82-.77Z"/>
        <path class="cls-1" d="M32.57,526.24c-.44,0-.67-.24-.7-.67-.06-.74.42-1.09,1.02-1.26.36-.1.53.18.5.52-.06.59-.04,1.23-.81,1.41Z"/>
        <path class="cls-1" d="M968.88,409.38c-.01.75-.42.86-.92.8-.47-.06-.97-.24-.85-.8.11-.5.46-1,1.1-.91.55.07.64.56.68.91Z"/>
        <path class="cls-1" d="M689.98,333.56c-.2.47-.54.79-1.04.74-.65-.06-.93-.64-.87-1.14.05-.49.6-.59,1.09-.51.51.09.75.43.82.91Z"/>
        <path class="cls-1" d="M64.85,430.69c-.05.41-.25.78-.64.78-.62,0-1.21-.25-1.22-.98,0-.48.33-.78.87-.79.68,0,.83.5.99.99Z"/>
        <path class="cls-1" d="M947.43,472.15c.4.03.73.16.78.6.04.42-.13.73-.59.75-.47.02-.91-.1-.91-.7,0-.45.31-.63.72-.66Z"/>
        <path class="cls-1" d="M677.9,345.02c.44.16,1.1.17,1.09.88,0,.32-.37.5-.69.43-.55-.12-1.02-.4-.98-1.05.01-.24.31-.27.58-.26Z"/>
        <path class="cls-1" d="M153.2,672.91c0,.47-.28.83-.76.86-.38.03-.67-.31-.74-.69-.09-.54.23-.83.74-.84.39,0,.7.17.76.67Z"/>
        <path class="cls-1" d="M932.99,384.74c.47.09.54.45.5.85-.05.54-.15,1.19-.79,1.18-.71-.01-.71-.7-.66-1.23.05-.52.41-.79.96-.79Z"/>
        <path class="cls-1" d="M663.26,437.66c-.34-.05-.54-.26-.52-.58.04-.54.25-1.03.85-1.12.35-.05.49.26.49.57.02.58-.23.98-.83,1.13Z"/>
        <path class="cls-1" d="M38.34,607.77c.63-.13.92-.25,1.19-.22.52.05,1.06.18,1.14.85.03.22.03.47-.21.58-.54.27-1,.13-1.39-.31-.19-.21-.36-.44-.73-.9Z"/>
        <path class="cls-1" d="M945.22,397.52c-.14.47-.53.52-.92.48-.61-.06-1.03-.43-1.02-1.02,0-.45.47-.56.87-.47.54.12,1,.37,1.06,1.01Z"/>
        <path class="cls-1" d="M748.94,612.13c-.34.09-.43.15-.48.13-.68-.24-1.51-.27-1.72-1.16-.03-.12.28-.46.41-.44.87.09,1.52.49,1.79,1.48Z"/>
        <path class="cls-1" d="M178.72,326.24c.3.02.53-.01.73.05.51.15,1,.36,1.04.99,0,.12-.12.31-.23.35-.64.24-.92-.33-1.31-.63-.17-.13-.36-.29-.23-.76Z"/>
        <path class="cls-1" d="M433.5,552.91c.46.06.89.16.9.74,0,.32-.17.57-.52.59-.48.04-.89-.16-1.03-.63-.15-.51.33-.54.64-.7Z"/>
        <path class="cls-1" d="M915.79,617.6c-.5-.1-1.02-.23-.96-.91.01-.14.31-.35.48-.35.54,0,1.04.24,1.15.8.05.27-.35.41-.67.46Z"/>
        <path class="cls-1" d="M959.98,394.29c-.05.48-.3.85-.79.91-.56.07-.78-.37-.83-.83-.06-.48.12-.9.7-.91.53-.01.76.37.92.82Z"/>
        <path class="cls-1" d="M448.84,652.18c.5.12.44.52.44.88,0,.51-.21.91-.75.87-.2-.01-.56-.41-.54-.6.04-.51.23-1.02.85-1.15Z"/>
        <path class="cls-1" d="M959.79,493.01c-.1.49-.37.6-.68.58-.6-.02-.97-.34-1.05-.94-.04-.26.14-.47.37-.45.61.05,1.12.3,1.36.8Z"/>
        <path class="cls-1" d="M289.22,634.72c0,.4-.16.69-.46.74-.41.07-.71-.16-.74-.6-.02-.32.11-.58.46-.65.48-.11.63.23.74.52Z"/>
        <path class="cls-1" d="M68.88,473.28c-.31.42-.43,1.09-1.13.92-.48-.11-.44-.58-.35-.94.13-.54.58-.66,1.06-.57.26.05.63.16.43.59Z"/>
        <path class="cls-1" d="M967.71,620.29c.44.55.25,1.1,0,1.63-.17.35-.51.57-.9.34-.38-.22-.4-.61-.17-.95.28-.41.45-.95,1.08-1.02Z"/>
        <path class="cls-1" d="M393.06,598.94c.44.01.71.24.75.65.03.33-.22.55-.53.53-.38-.01-.73-.19-.75-.63-.01-.33.22-.51.53-.56Z"/>
        <path class="cls-1" d="M988.61,441.14c-.02.45-.27.69-.7.66-.3-.02-.58-.2-.64-.51-.09-.45.23-.69.61-.76.42-.07.69.17.73.61Z"/>
        <path class="cls-1" d="M802.5,308.55c0,.61-.24.86-.67.86-.52,0-.83-.34-.9-.82-.08-.47.32-.66.69-.71.57-.07.72.4.88.66Z"/>
        <path class="cls-1" d="M29.82,485.04c.51.11,1.06.22,1.08.9,0,.31-.23.57-.56.6-.65.05-.97-.37-1.07-.93-.06-.33.18-.55.56-.58Z"/>
        <path class="cls-1" d="M197.51,668.95c-.07.69-.52.99-1.03,1.11-.29.07-.57-.26-.54-.58.05-.55.33-1.04.95-1.05.22,0,.44.35.62.51Z"/>
        <path class="cls-1" d="M996.26,591.39c-.37.45-.21,1.3-1.07,1.23-.24-.02-.32-.28-.3-.5.06-.61.29-1.13.98-1.19.11-.01.26.3.39.46Z"/>
        <path class="cls-1" d="M535.39,698.33c-.12.42-.15,1.03-.79,1.1-.51.06-.55-.39-.51-.76.07-.53.25-1.04.9-1.05.37,0,.42.34.4.71Z"/>
        <path class="cls-1" d="M200.87,346.85c-.1.34-.31.63-.74.62-.58,0-.73-.42-.71-.9.02-.51.4-.52.79-.45.39.07.71.2.66.72Z"/>
        <path class="cls-1" d="M131.65,635.11c.33.04.44.31.43.61-.01.44-.27.7-.7.63-.34-.06-.39-.4-.36-.71.04-.33.26-.51.62-.53Z"/>
        <path class="cls-1" d="M405.48,600.58c-.45-.14-.46-.5-.41-.87.04-.31.22-.57.55-.58.48-.01.6.35.56.73-.04.38-.24.69-.7.71Z"/>
        <path class="cls-1" d="M194.63,673.44c.57.18.82.44.77.87-.06.46-.45.57-.83.6-.33.02-.61-.17-.61-.52,0-.53.46-.69.67-.96Z"/>
        <path class="cls-1" d="M992.28,588.53c-.08.44-.36.65-.78.54-.29-.08-.52-.36-.5-.67.04-.46.44-.54.81-.51.37.02.45.32.46.64Z"/>
        <path class="cls-1" d="M192.67,396.23c-.07.46-.38.66-.8.57-.29-.06-.58-.27-.53-.63.07-.46.45-.58.84-.57.37.01.49.3.49.63Z"/>
        <path class="cls-1" d="M987.45,481.17c.4.07.5.38.52.68.04.5-.19.94-.7,1.02-.47.07-.65-.31-.6-.74.06-.48.28-.85.78-.96Z"/>
        <path class="cls-1" d="M195.36,382.91c.59.02,1.1.17,1.17.81.04.36-.33.48-.63.51-.51.05-.91-.2-1.01-.7-.06-.29.11-.59.47-.62Z"/>
        <path class="cls-1" d="M174.36,658.75c.41,0,.68.21.81.59.1.3.07.59-.3.68-.51.12-.88-.07-.95-.6-.04-.29.13-.56.45-.66Z"/>
        <path class="cls-1" d="M84.3,626.06c-.44-.02-.71-.33-.77-.67-.07-.42.27-.63.7-.64.45-.01.74.29.77.64.02.35-.24.67-.7.68Z"/>
        <path class="cls-1" d="M573.24,618.1c-.34-.03-.56-.23-.59-.55-.03-.49.21-.89.7-.97.31-.05.52.24.57.56.09.54-.21.82-.69.97Z"/>
        <path class="cls-1" d="M997.85,598.36c.51.14.99.37.99.95,0,.28-.41.39-.72.32-.44-.09-.9-.23-.87-.8.01-.33.27-.49.61-.48Z"/>
        <path class="cls-1" d="M993.75,626.21c.03.29-.08.5-.31.5-.36,0-.72-.1-.91-.45-.11-.2-.05-.45.18-.53.5-.17.8.15,1.04.47Z"/>
        <path class="cls-1" d="M269.77,643.42c.02.36-.17.55-.51.56-.5,0-.87-.24-.93-.74-.04-.31.15-.57.51-.58.51-.01.82.27.94.76Z"/>
        <path class="cls-1" d="M483.94,712.28c-.47-.05-.85-.29-.95-.77-.08-.4.29-.47.58-.49.42-.03.75.14.81.58.05.31-.08.58-.45.68Z"/>
        <path class="cls-1" d="M502.96,291.16c-.06.41-.19.83-.65.73-.44-.09-.81-.44-.79-.94.02-.42.4-.63.76-.67.63-.05.66.44.67.87Z"/>
        <path class="cls-1" d="M449.73,294.82c-.06.4-.25.74-.67.74-.37,0-.36-.38-.39-.66-.05-.47.25-.7.65-.71.37-.01.41.33.42.63Z"/>
        <path class="cls-1" d="M671.21,308.01c-.44-.03-.72-.27-.77-.67-.06-.45.24-.71.64-.78.46-.08.66.24.73.65.08.47-.25.65-.59.8Z"/>
        <path class="cls-1" d="M463.9,321.52c0,.25-.08.45-.3.51-.4.11-.74-.04-.9-.4-.14-.31.07-.58.38-.64.41-.08.65.2.82.52Z"/>
        <path class="cls-1" d="M12.09,499.97c.32.13.49.34.39.67-.11.36-.33.67-.76.65-.43-.02-.39-.38-.32-.64.09-.34.25-.68.68-.68Z"/>
        <path class="cls-1" d="M13.58,358.59c.06.72-.26.86-.67.85-.41-.01-.69-.21-.72-.66-.03-.44.19-.74.59-.79.55-.06.72.37.79.6Z"/>
        <path class="cls-1" d="M548.39,668.55c.82-.28,1.49-.46,1.8.45.05.16-.11.56-.23.58-.68.13-1.08-.31-1.57-1.03Z"/>
        <path class="cls-1" d="M19.97,455.26c.47.02.71.36.7.73,0,.4-.44.28-.7.28-.3,0-.64-.07-.62-.47.02-.34.29-.49.62-.55Z"/>
        <path class="cls-1" d="M959.73,625.74c.46-.04.69.23.77.63.07.35-.11.57-.45.65-.41.09-.78,0-.89-.45-.1-.43.16-.7.57-.83Z"/>
        <path class="cls-1" d="M773.91,561.31c.13.1.36.19.42.35.15.42-.06.69-.49.72-.2.01-.44-.11-.44-.38,0-.3.15-.54.51-.69Z"/>
        <path class="cls-1" d="M768.1,553.36c0,.51-.2.68-.53.71-.41.03-.72-.11-.76-.58-.03-.45.23-.73.63-.73.41,0,.61.34.65.6Z"/>
        <path class="cls-1" d="M982.65,626.45c.43.12.83.33.79.87,0,.13-.34.33-.51.32-.48-.03-.88-.24-.8-.83.04-.25.24-.36.52-.36Z"/>
        <path class="cls-1" d="M429.48,262.19c.02.59-.14.92-.58.96-.52.04-.81-.26-.84-.79-.03-.5.3-.63.7-.62.39,0,.75.11.71.45Z"/>
        <path class="cls-1" d="M241.18,297.51c-.31-.05-.62-.12-.57-.52.05-.38.37-.43.68-.42.34.01.56.23.55.56-.01.45-.4.32-.65.37Z"/>
        <path class="cls-1" d="M552.47,622.9c.41,0,.7.16.77.58.05.26-.14.43-.37.42-.43-.02-.92-.08-.88-.69.01-.24.25-.3.48-.32Z"/>
        <path class="cls-1" d="M921.54,391.96c.5.12,1.12.15,1.1.84,0,.29-.43.43-.74.38-.48-.09-.85-.35-.82-.9.02-.23.14-.44.46-.31Z"/>
        <path class="cls-1" d="M195.47,365.54c.34-.02.56.18.63.47.07.35-.2.56-.5.53-.27-.03-.55-.21-.55-.56,0-.24.2-.37.42-.44Z"/>
        <path class="cls-1" d="M52.43,441.35c-.28-.07-.61-.15-.65-.46-.03-.24.25-.36.47-.36.3,0,.6.14.65.45.03.25-.24.33-.47.37Z"/>
        <path class="cls-1" d="M27.32,484.92c.01.43-.3.65-.66.7-.28.04-.58-.1-.58-.5,0-.42.19-.75.61-.77.28,0,.54.22.63.56Z"/>
        <path class="cls-1" d="M35.55,492.53c-.06.37-.33.45-.63.43-.34-.03-.54-.26-.5-.58.04-.35.36-.45.65-.44.34,0,.49.25.48.59Z"/>
        <path class="cls-1" d="M25.37,510.32c-.05.35-.31.55-.61.53-.41-.03-.66-.32-.63-.77.02-.37.29-.54.6-.51.41.04.68.28.64.74Z"/>
        <path class="cls-1" d="M766.56,612.47c-.19.29-.49.36-.77.22-.31-.16-.35-.47-.18-.76.12-.2.36-.28.58-.18.3.14.45.38.36.72Z"/>
        <path class="cls-1" d="M880.1,540.97c-.09.4-.28.7-.76.63-.24-.04-.39-.19-.4-.46,0-.42.16-.77.6-.79.33-.01.49.3.55.62Z"/>
        <path class="cls-1" d="M51.55,573.97c-.04.43-.27.68-.69.69-.46,0-.62-.31-.59-.72.02-.31.16-.56.52-.57.43-.02.67.21.76.61Z"/>
        <path class="cls-1" d="M397.3,581.42c-.02.32-.1.57-.48.59-.44.02-.71-.23-.73-.63-.02-.28.14-.59.5-.62.47-.04.6.31.72.67Z"/>
        <path class="cls-1" d="M406.34,615.26c-.11.32-.36.46-.68.46-.24,0-.46-.12-.49-.37-.04-.34.19-.57.5-.6.34-.04.48.28.66.51Z"/>
        <path class="cls-1" d="M945.92,621.5c-.12.55-.41.85-.93.84-.21,0-.47-.1-.4-.39.12-.55.43-.95,1.04-.93.11,0,.21.34.29.48Z"/>
        <path class="cls-1" d="M927.56,621.82c0,.23-.04.47-.3.51-.34.05-.58-.18-.66-.48-.06-.24.12-.42.35-.48.37-.1.56.09.6.45Z"/>
        <path class="cls-1" d="M77.23,626.66c.12.16.42.37.44.61.03.36-.33.44-.63.39-.33-.06-.52-.27-.39-.63.08-.21.24-.36.58-.37Z"/>
        <path class="cls-1" d="M317.24,627.69c-.23-.03-.51-.1-.52-.34-.01-.35.29-.52.59-.46.17.04.41.27.42.44.02.25-.26.33-.5.36Z"/>
        <path class="cls-1" d="M718.91,634.08c-.39-.11-.71-.33-.66-.77.04-.33.38-.49.67-.45.4.05.7.33.65.76-.04.33-.33.46-.66.46Z"/>
        <path class="cls-1" d="M256.73,649.79c.36.06.49.3.48.61-.01.39-.31.44-.6.42-.33-.03-.52-.26-.49-.58.03-.35.35-.4.62-.46Z"/>
        <path class="cls-1" d="M556.14,652.73c-.19.47-.56.48-.92.37-.46-.15-.43-.58-.32-.92.09-.29.39-.43.71-.28.36.16.59.43.52.83Z"/>
        <path class="cls-1" d="M186.97,329.57c.02.41-.1.67-.4.78-.43.15-.7-.11-.83-.48-.11-.33.06-.58.39-.63.36-.06.73-.07.84.33Z"/>
        <path class="cls-1" d="M452.47,345.59c.03.42-.12.76-.53.88-.38.11-.56-.22-.56-.5,0-.39.21-.72.65-.78.29-.04.39.17.44.4Z"/>
        <path class="cls-1" d="M455.9,664.64c.05-.38.28-.52.6-.5.42.02.63.33.73.7.01.04-.33.24-.52.25-.35.02-.75.05-.81-.44Z"/>
        <path class="cls-1" d="M23.32,341.69c.34.03.57.26.61.55.05.31-.16.57-.5.61-.33.04-.6-.07-.57-.47.02-.3.09-.6.45-.68Z"/>
        <path class="cls-1" d="M739.66,614.63c.47.04.6.34.58.75-.02.34-.19.59-.54.49-.34-.1-.71-.29-.68-.74.02-.36.34-.44.63-.51Z"/>
        <path class="cls-1" d="M200.37,360.81c-.34-.02-.52-.22-.48-.55.04-.3.21-.57.52-.61.44-.06.35.32.39.57.05.32-.06.55-.42.58Z"/>
        <path class="cls-1" d="M915.88,369.3c.33.13.65.34.55.81-.05.24-.3.38-.52.29-.35-.14-.71-.34-.61-.81.05-.23.29-.32.58-.3Z"/>
        <path class="cls-1" d="M928.53,394.36c.37-.01.72.11.78.55.04.3-.13.58-.51.55-.38-.04-.74-.2-.82-.6-.07-.35.18-.51.56-.5Z"/>
        <path class="cls-1" d="M993.42,602.2c-.18-.01-.42-.05-.41-.34.02-.42.26-.69.66-.79.34-.08.35.21.38.41.07.44-.1.72-.64.72Z"/>
        <path class="cls-1" d="M569.06,605.55c-.05.29-.13.6-.49.6-.34,0-.51-.28-.52-.59-.01-.32.19-.56.52-.57.36-.01.49.23.49.56Z"/>
        <path class="cls-1" d="M989.87,624.79c0,.29-.12.48-.34.54-.4.09-.74-.05-.92-.42-.09-.18-.18-.44.14-.54.51-.17.83.14,1.12.43Z"/>
        <path class="cls-1" d="M999.71,614.8c0-.33.19-.55.5-.59.22-.03.43.11.45.36.03.34-.17.56-.48.59-.2.02-.41-.11-.46-.36Z"/>
        <path class="cls-1" d="M712.83,621.42c-.29.02-.48-.09-.54-.33-.09-.36.07-.6.43-.66.24-.04.46.09.51.33.06.33-.08.58-.4.66Z"/>
        <path class="cls-1" d="M410.81,612.25c-.18.43-.45.55-.76.45-.47-.16-.4-.57-.31-.93.07-.25.3-.33.53-.28.45.1.5.48.54.76Z"/>
        <path class="cls-1" d="M984.69,620s.15.15.16.34c.02.22-.14.39-.42.33-.22-.05-.44-.13-.45-.38,0-.25.17-.36.71-.28Z"/>
        <path class="cls-1" d="M134.02,658.25c.1-.35.36-.47.68-.43.22.02.47.12.41.42-.08.4-.29.7-.76.52-.22-.08-.35-.26-.33-.51Z"/>
        <path class="cls-1" d="M125.39,643.72c.17.43.11.58-.07.6-.47.04-.83-.17-1.06-.56-.03-.06.11-.3.2-.33.48-.11.81.13.93.29Z"/>
        <path class="cls-1" d="M417.78,628.64c-.04.3-.19.56-.49.64-.19.06-.51-.01-.46-.25.05-.26.25-.53.47-.69.13-.1.4.04.48.29Z"/>
        <path class="cls-1" d="M919.84,373.34c.3,0,.53.27.64.64.02.08-.15.32-.23.32-.38,0-.8-.05-.94-.47-.07-.21.13-.41.53-.49Z"/>
        <path class="cls-1" d="M671.16,310.47c-.2-.1-.36-.25-.28-.47.03-.08.24-.18.32-.15.18.08.38.22.29.46-.03.08-.22.11-.33.16Z"/>
        <path class="cls-1" d="M690.85,312.66c-.32,0-.56-.12-.6-.47-.04-.29.16-.39.39-.4.28,0,.63-.05.6.4-.01.23-.14.41-.38.48Z"/>
        <path class="cls-1" d="M918.3,610.47c-.14.25-.35.28-.55.13-.1-.07-.14-.24-.2-.37.21-.04.42-.13.62-.12.17.01.22.19.14.35Z"/>
        <path class="cls-1" d="M927.04,611.95c-.07.11-.12.29-.2.3-.22.05-.44-.03-.4-.31.01-.1.2-.25.3-.25.1,0,.21.16.31.25Z"/>
        <path class="cls-1" d="M100.99,616.06c-.11.08-.23.22-.33.22-.27,0-.37-.24-.33-.46.01-.09.22-.22.32-.21.24.02.38.19.35.46Z"/>
        <path class="cls-1" d="M709.19,629.71c-.23-.03-.39-.16-.38-.4.01-.23.18-.38.41-.34.1.02.22.17.25.29.08.24-.02.41-.28.45Z"/>
        <path class="cls-1" d="M925.18,371.32c.03.23-.01.44-.28.45-.11,0-.29-.13-.31-.22-.03-.21.07-.43.31-.46.08-.01.19.15.28.24Z"/>
        <path class="cls-1" d="M556.14,628.33c-.37.07-.58-.08-.71-.37-.13-.3.12-.37.31-.42.32-.09.54.09.67.37.14.31-.15.32-.27.42Z"/>
        <path class="cls-1" d="M965.17,470.68c-.11.12-.23.35-.39.4-.34.09-.54-.14-.57-.47-.02-.23.14-.42.36-.46.34-.06.53.14.6.53Z"/>
        <path class="cls-1" d="M276.62,638.56c.4.11.5.37.44.68-.06.31-.27.55-.59.51-.34-.05-.38-.38-.35-.67.03-.33.22-.51.5-.51Z"/>
        <path class="cls-1" d="M245.65,642.47c.33.15.61.28.46.66-.09.21-.29.37-.51.28-.25-.11-.55-.3-.41-.64.06-.15.32-.22.46-.3Z"/>
        <path class="cls-1" d="M192.64,344.51c-.02.32-.09.6-.45.65-.39.05-.51-.23-.52-.53,0-.3.15-.55.48-.63.45-.1.39.29.49.51Z"/>
        <path class="cls-1" d="M225.34,643.71c-.01.08-.17.25-.4.22-.33-.04-.54-.29-.49-.6.02-.11.35-.24.55-.23.23,0,.39.18.35.61Z"/>
        <path class="cls-1" d="M262.36,326.57c.24.14.55.27.4.64-.09.22-.36.32-.54.21-.15-.09-.27-.34-.29-.53-.02-.23.14-.4.43-.33Z"/>
        <path class="cls-1" d="M158.13,662c.26-.07.41.07.49.3.08.23.05.5-.17.59-.33.15-.57-.02-.62-.38-.03-.23.02-.44.3-.51Z"/>
        <path class="cls-1" d="M453.74,314.55c.15.12.38.21.45.37.12.27-.08.42-.32.32-.18-.07-.3-.28-.44-.43.09-.07.18-.15.31-.26Z"/>
        <path class="cls-1" d="M535.32,692.57c-.04.23-.15.42-.39.45-.25.04-.39-.13-.41-.36-.01-.24.09-.43.36-.43.22,0,.4.09.44.34Z"/>
        <path class="cls-1" d="M491.04,709.83c-.07.23-.3.23-.5.22-.21-.02-.48-.07-.34-.38.05-.11.24-.2.37-.21.23-.02.43.08.47.37Z"/>
        <path class="cls-1" d="M38.26,573.76c-.52-.05-.79-.28-.81-.71,0-.05.38-.17.59-.17.29,0,.63,0,.71.38.09.46-.32.4-.49.5Z"/>
        <path class="cls-1" d="M503.9,574.31c.09.18.04.32-.16.32-.21,0-.43-.06-.64-.1.08-.12.14-.26.24-.35.23-.2.41-.07.56.13Z"/>
        <path class="cls-1" d="M508.68,579.24c-.12,0-.25.02-.35-.03-.18-.08-.18-.22,0-.3.1-.05.23-.02.35-.03,0,.12,0,.24,0,.36Z"/>
        <path class="cls-1" d="M63.2,608.38c-.11.27-.15.6-.55.54-.34-.05-.49-.31-.38-.62.06-.17.25-.36.42-.42.43-.14.41.26.51.5Z"/>
        <path class="cls-1" d="M196.28,353.39c-.06.21-.16.41-.42.36-.23-.04-.41-.22-.33-.43.06-.16.29-.34.46-.36.23-.03.29.22.3.43Z"/>
        <path class="cls-1" d="M172.96,654.63c.36.08.44.33.35.63-.07.22-.24.33-.48.22-.22-.1-.31-.28-.3-.51,0-.29.22-.32.44-.34Z"/>
        <path class="cls-1" d="M753.6,621.47c-.45.02-.62-.33-.82-.64.13-.06.26-.16.39-.17.44-.04.67.24.78.62,0,.03-.23.13-.35.19Z"/>
        <path class="cls-1" d="M657,624.11c-.24-.09-.31-.29-.24-.5.07-.24.3-.31.52-.25.09.03.18.23.17.35-.02.24-.2.37-.45.4Z"/>
        <path class="cls-1" d="M53.89,567.35c-.05.12-.1.35-.17.35-.23.02-.43-.13-.47-.36-.02-.1.09-.29.18-.32.25-.07.39.09.46.32Z"/>
        <path class="cls-1" d="M323.3,617.82c.28.06.53.15.55.52.01.28-.2.36-.39.39-.35.06-.52-.12-.52-.47,0-.23.12-.38.36-.44Z"/>
        <path class="cls-1" d="M940.63,459.79c-.14.04-.29.11-.43.11-.21,0-.3-.16-.17-.32.08-.09.26-.14.4-.14.18.01.25.16.2.35Z"/>
        <path class="cls-1" d="M45.31,551.66c-.07-.17-.03-.34.15-.36.12-.01.31.08.38.19.1.14.01.33-.16.34-.12.01-.24-.11-.37-.17Z"/>
        <path class="cls-1" d="M65.12,609.26c.06.03.17.07.18.11.02.18-.09.28-.27.27-.06,0-.16-.06-.17-.11-.03-.17.07-.26.26-.26Z"/>
        <path class="cls-1" d="M740.49,629.91c.11.06.28.09.32.18.04.07-.07.22-.11.33-.11-.06-.25-.09-.32-.18-.11-.13-.05-.26.11-.33Z"/>
        <path class="cls-1" d="M559.3,603.56c.06.28-.14.38-.35.43-.26.06-.39-.1-.45-.33-.07-.28.13-.38.35-.43.26-.07.38.11.45.33Z"/>
        <path class="cls-1" d="M71.74,516.14c-.12.03-.26.13-.34.09-.09-.04-.11-.21-.17-.32.11-.04.27-.15.33-.11.09.06.12.22.17.34Z"/>
        <path class="cls-1" d="M190.18,338.71c-.1.06-.21.18-.31.18-.21-.01-.37-.15-.24-.37.05-.08.25-.1.38-.09.18,0,.24.13.18.28Z"/>
        <path class="cls-1" d="M53.95,590.52c-.17.09-.29.03-.29-.16,0-.12.07-.25.11-.37.12.06.3.09.33.18.03.1-.09.23-.14.35Z"/>
        <path class="cls-1" d="M785.35,585.85c-.13.11-.26.1-.34-.05-.02-.04,0-.15.04-.19.12-.12.25-.1.34.05.02.04-.02.13-.04.19Z"/>
        <path class="cls-1" d="M967.3,448.78c.13.05.3.07.37.16.11.15.03.31-.16.32-.13,0-.26-.07-.39-.11.06-.12.13-.25.19-.37Z"/>
        <path class="cls-1" d="M114.02,537.45c.14.05.32.05.4.15.13.16.05.31-.16.32-.14,0-.35-.02-.42-.11-.1-.14,0-.29.18-.35Z"/>
        <path class="cls-1" d="M48.46,436.03c.02.26-.14.39-.36.45-.25.06-.41-.08-.45-.31-.05-.27.17-.37.37-.44.28-.1.37.09.44.31Z"/>
        <path class="cls-1" d="M429.88,623.39c.05.31-.19.36-.39.43-.28.1-.46-.1-.49-.3-.05-.31.03-.62.47-.56.24.03.4.18.42.43Z"/>
        <path class="cls-1" d="M524.92,537.28c-.11.15-.2.37-.36.47-.68.43-1.32.23-1.83-.28-.26-.26-.25-.71-.06-1.06.18-.33.53-.27.79-.15.53.24,1.19.31,1.47,1.02Z"/>
        <path class="cls-1" d="M621.41,529.84c-.42,0-.53-.28-.56-.59-.03-.32.04-.62.45-.63.37,0,.53.25.54.57.02.32-.07.6-.43.65Z"/>
        <path class="cls-1" d="M612.95,529.08c-.19.22-.44.35-.73.18-.29-.16-.35-.45-.18-.73.12-.19.36-.24.58-.15.31.12.46.33.33.7Z"/>
        <path class="cls-1" d="M513.72,529.38c.01.3-.18.39-.36.45-.27.08-.36-.14-.38-.34,0-.11.15-.34.2-.33.19.03.37.14.53.22Z"/>
        <path class="cls-1" d="M324.94,527.68c-.04.44-.26.67-.71.65-.43-.01-.72-.17-.71-.64,0-.3.03-.6.42-.67.54-.09.84.18,1,.66Z"/>
        <path class="cls-1" d="M337.19,525.18c0,.27-.15.4-.4.34-.2-.04-.44-.13-.3-.42.06-.11.18-.22.3-.27.32-.13.33.16.4.35Z"/>
        <path class="cls-1" d="M363.46,524.35c-.18.25-.39.3-.59.18-.19-.11-.32-.33-.19-.54.06-.09.32-.16.39-.11.16.12.27.31.39.47Z"/>
        <path class="cls-1" d="M843.89,488.64c-.3-.06-.57-.2-.5-.53.03-.16.28-.37.45-.39.33-.03.52.21.5.54-.02.23-.18.39-.44.38Z"/>
        <path class="cls-1" d="M854.11,446.32c.32-.05.36.19.37.39.02.39-.15.7-.57.78-.3.06-.36-.19-.37-.4-.01-.39.13-.7.57-.77Z"/>
        <path class="cls-1" d="M599.62,397.01c.25-.02.46.06.47.33,0,.1-.15.26-.26.3-.25.07-.44-.07-.47-.32,0-.09.17-.21.27-.31Z"/>
        <path class="cls-1" d="M587.11,330.65c-.23-.03-.47-.09-.5-.35,0-.08.2-.21.32-.28.31-.16.42.08.44.3.01.1-.17.22-.26.33Z"/>
        <path class="cls-1" d="M589.34,326.24c.18-.09.29-.18.41-.2.33-.04.57.15.67.43.11.29-.11.36-.33.25-.25-.12-.47-.3-.74-.48Z"/>
        <path class="cls-1" d="M493.85,424.36c-.21-.06-.48-.16-.4-.41.11-.33.31-.67.75-.61.24.03.38.21.37.45-.02.45-.3.61-.72.57Z"/>
        <path class="cls-1" d="M496.03,368.64c.27.1.37.28.19.52-.08.11-.31.23-.39.19-.22-.11-.28-.35-.18-.59.07-.18.22-.21.39-.11Z"/>
        <path class="cls-1" d="M599.83,459.42c.1.08.29.14.3.23.03.31-.21.29-.42.26-.19-.02-.29-.14-.21-.29.06-.1.21-.14.33-.2Z"/>
        <path class="cls-1" d="M406.79,496.73c-.07.08-.17.24-.22.23-.12-.02-.24-.12-.32-.22-.12-.14-.07-.31.1-.34.23-.04.38.1.44.33Z"/>
        <path class="cls-1" d="M419.7,440.78c.35.18.84.25.93.76.04.24-.17.42-.41.43-.51.02-.83-.26-.91-.76-.03-.22.06-.44.39-.43Z"/>
        <path class="cls-1" d="M944.61,443.56c.35.14.63.36.59.79-.03.34-.32.51-.61.52-.29,0-.56-.16-.58-.52-.03-.43.22-.66.6-.78Z"/>
        <path class="cls-1" d="M945.66,442.54c-.4.05-.61-.09-.68-.42-.05-.27.12-.4.32-.49.33-.15.61.03.7.3.1.29-.05.56-.34.61Z"/>
      </g>
    </g>
  </g>
</svg>