<?xml version="1.0" encoding="utf-8"?>
<!-- Generator: Adobe Illustrator 28.6.0, SVG Export Plug-In . SVG Version: 9.03 Build 54939)  -->
<svg version="1.1" id="Capa_1" xmlns="http://www.w3.org/2000/svg" xmlns:xlink="http://www.w3.org/1999/xlink" x="0px" y="0px"
	 viewBox="0 0 995.81 1142.53" style="enable-background:new 0 0 995.81 1142.53;" xml:space="preserve">
<g>
	<path style="fill:#020101;" d="M1.95,295.76c0.55-12.46,1.09-24.92,1.66-37.38c2.05-44.23,4.16-88.46,6.06-132.7
		c0.17-3.97,1.68-5.11,5.3-5.97c111.94-26.33,224.35-50.64,335.94-78.44c48.13-11.99,95.8-25.66,143.15-40.41
		c3.3-1.03,6.29-1.2,9.65-0.19c81.6,24.66,164.65,43.55,247.69,62.51c77.54,17.71,155.15,35.19,231.95,55.97
		c2.5,0.68,4.77,0.83,4.92,4.75c2.27,62.38,6.27,124.7,7.33,187.13c1.33,78.6-3.65,156.71-17.39,234.19
		c-14.84,83.68-40.07,163.93-79.44,239.45c-44.81,85.93-104.39,160.02-178.94,222.02c-65.41,54.4-137.7,97.82-214.27,134.43
		c-3.61,1.72-6.57,1.94-10.28,0.15c-81.1-39.38-158.69-84.33-227.61-143.06C196.88,937.9,140.05,866.52,97.57,783.7
		c-41.84-81.59-67.23-168.33-81.73-258.53c-7.46-46.41-11.62-93.14-13.4-140.09c-0.06-1.48-0.32-2.95-0.49-4.43
		c0.02-2.81,0.06-5.62,0.06-8.42C2,346.74,1.97,321.25,1.95,295.76z M962.17,341.8c-0.11-24.52-0.21-43.48-0.91-62.44
		c-0.63-17.11-1.08-34.22-1.97-51.33c-1.27-24.57-2.43-49.15-3.06-73.74c-0.15-5.8-2.09-7.9-7.39-9.37
		c-27.56-7.63-55.3-14.57-83.15-21.03c-61.34-14.22-122.76-28.11-184.14-42.15c-56.23-12.86-112.23-26.69-167.88-41.88
		c-10.18-2.78-20-3.47-30.37-0.41c-36.53,10.75-73.17,21.09-110.05,30.6c-67.44,17.39-135.52,32.04-203.33,47.87
		c-38.52,8.99-77.03,18.01-115.52,27.16c-12.16,2.89-11.92,3.1-12.45,15.5c-0.81,19.09-2.05,38.17-2.86,57.26
		c-1.13,26.74-2.46,53.49-2.94,80.25c-0.92,51.89-0.7,103.76,4.59,155.5c2.35,22.97,4.77,45.92,8.49,68.69
		c8.89,54.39,21.8,107.8,40.66,159.68c19.92,54.82,45.77,106.68,78.35,155.06c25.52,37.9,54.57,72.92,87.4,104.82
		c21.76,21.15,44.71,40.85,68.97,58.99c50.67,37.88,104.86,69.97,161.79,97.5c14.54,7.03,14.46,7.05,28.84,0.15
		c28.23-13.55,55.56-28.75,82.28-45.06c52.14-31.84,100.99-68.02,144.58-110.98c36.65-36.12,68.34-76.22,95.86-119.73
		c28.57-45.18,52.25-92.75,70.38-142.98c19.18-53.14,32.36-107.82,41.04-163.65c5.82-37.47,9.28-75.15,11.44-112.96
		C962.11,380.86,962.59,358.56,962.17,341.8z"/>
	<path style="fill:#020101;" d="M937.03,336.79c0.26,32.54-0.98,62.13-3.16,91.64c-5.53,74.99-18.05,148.73-41.55,220.34
		c-15.71,47.89-36.54,93.48-61.77,137.16c-33.06,57.24-73.91,108.16-122.12,153.21c-24.34,22.74-50.64,43.13-78.02,62.09
		c-39.05,27.05-79.82,51.16-122.48,72.09c-4.43,2.17-7.89,2.36-12.47,0.14c-53.74-26.06-105-56.27-153.04-91.76
		c-20.33-15.02-39.73-31.24-58.23-48.53c-45.52-42.56-84.24-90.56-115.83-144.26c-21.57-36.65-39.68-74.98-54.36-114.89
		c-18.77-51.04-31.4-103.66-39.91-157.3c-4.98-31.35-8.5-62.86-10.37-94.57c-0.88-14.94-1.84-29.86-1.93-44.83
		c-0.08-12.64-0.8-25.28-0.61-37.92c0.43-28.77,0.96-57.55,1.99-86.3c0.93-25.91,2.56-51.79,3.99-77.68
		c0.19-3.48,0.1-6.59,5.32-7.86c56.83-13.85,113.92-26.57,170.96-39.54c54.12-12.31,108.18-24.9,161.87-38.99
		c22.2-5.82,44.42-11.6,66.21-18.76c16.79-5.51,32.75-6.24,50.09-1.27c70.16,20.15,141.38,36.11,212.63,51.91
		c59.2,13.12,118.36,26.45,177.15,41.35c5.32,1.35,10.58,2.92,15.91,4.18c2.72,0.64,3.71,1.98,3.81,4.82
		c0.77,23.26,2.49,46.47,3.26,69.73c0.69,21.11,1.39,42.21,2.06,63.31C936.81,316.11,936.72,327.92,937.03,336.79z M651.34,931.03
		c0.38-0.28,0.76-0.55,1.15-0.83c12.41-7.61,22.98-17.51,33.44-27.46c25.04-23.81,45.62-51.07,61.29-81.89
		c4.35-8.55,9.07-17.04,11.23-26.57c1.74-1.99,1.97-3.94,0.34-6.25c-2.4-3.39-4.25-7.18-6.83-10.41
		c-19.02-23.79-43.76-40.01-70.7-53.35c-3.38-1.67-3.12,0.89-3.56,2.62c-3.53,13.88-7.73,27.52-14.28,40.32
		c-1.32,2.58-1.24,4.25,0.9,6.5c15.17,15.93,20.14,35.44,19.45,56.84c-0.39,11.99-2.76,23.74-4.45,35.57
		c-4.99,16.84-10.41,33.52-18.96,48.99c-2.72,4.92-5.49,9.82-8.23,14.74c-0.25,0.41-0.49,0.83-0.74,1.24
		c-0.09,0.12-0.19,0.23-0.28,0.35C651.19,931.31,651.26,931.17,651.34,931.03z M609.5,460.47c-0.06-0.64-0.3-0.83-0.84-0.37
		c0.23,0.17,0.47,0.33,0.7,0.5c3.06,2.76,6.2,5.45,9.18,8.3c19.15,18.27,33.47,40.02,44.79,63.72
		c12.06,25.24,22.66,51.04,25.09,79.8c8.28-2.8,13.58-8.32,17.44-15.32c8.45-15.34,11.84-31.97,12.25-49.34
		c0.06-2.38-1.08-4.09-2.19-5.94c-17.68-29.37-43.16-50.22-72.84-66.39C632.3,469.58,621.26,464.18,609.5,460.47z M790.7,745.06
		c-0.76,7.24-1.53,14.48-2.32,21.95c2.01-0.51,2.25-1.79,2.84-2.72c24.58-38.7,42.74-80.42,57.91-123.53
		c12.11-34.42,20.43-69.86,27.75-105.53c2.83-13.81,5.68-27.63,7.04-41.7c2.19-11.09,3.25-22.33,4.67-33.52
		c2.17-16.97,2.85-34.07,4.48-51.09c0.32-3.3-0.89-4.71-4.18-5.35c-6.84-1.32-13.61-3.07-20.4-4.67
		c-38.81-9.17-77.96-16.59-117.21-23.58c-3.34-0.59-3.78,0.2-4.09,3.25c-0.63,6.14,4.21,9.15,7.03,13.18
		c4.49,6.43,7.96,12.82,6.9,21.12c-0.8,6.24-0.48,12.62-0.99,18.9c-1,12.24-1.9,24.5-3.44,36.68c-3.07,24.24-8.4,48.07-14.16,71.8
		c-0.52,2.14-0.71,4.2,1.09,6.04c13.44,13.76,20.96,30.96,28.3,48.31c4.67,11.04,7.27,22.76,11.57,33.92
		c0.1,1.14,0.06,2.32,0.32,3.43C792.88,669.24,794.66,706.97,790.7,745.06z M473.13,486.97c0.43,0.25,0.86,0.5,1.29,0.75
		c29.73,13.79,55.79,32.88,79.58,55.23c11.76,11.04,22.22,23.4,34.46,33.97c18.79,16.22,39.96,28.05,63.95,34.54
		c11.22,3.04,11.3,2.76,9.93-8.98c-0.02-0.17-0.03-0.33-0.05-0.5c-5.2-37.68-19.15-71.81-42.08-102.14
		c-16.87-22.31-38.63-38.73-63.33-51.54c-4.78-2.48-9.33-5.21-14.93-4.71c-6.18,0.56-12.15-1.14-18.25-1.51
		c-10.79-0.64-21.54-0.46-32.34,0.22c-28.77,1.81-56.48,8.22-83.38,18.32c-6.35,2.38-12.84,4.59-19.73,8.78
		c24.59,0.39,47.09,4.94,69.08,12.42c5.01,1.71,9.78,4.2,15.11,4.93C472.65,486.93,472.88,487,473.13,486.97z M391.65,810.26
		l0.14,0.07c1.91,0.71,3.55-0.27,5.27-0.8c21.49-6.7,41.96-15.94,62.6-24.79c26.73-11.48,52.8-24.56,80.79-32.95
		c33.55-10.06,66.77-11.49,99.34,3.7c3.24,1.51,4.26,0.46,5.35-2.45c4.31-11.55,7.57-23.41,11.14-35.18
		c0.96-3.16,0.11-4.52-2.77-6.09c-41.96-22.97-86.3-40.09-132.1-53.52c-56.09-16.44-113.2-25.87-171.87-23.63
		c-8.64,0.33-17.28,0.88-25.72,3.03c-0.17-0.01-0.34-0.05-0.5-0.02c-30.98,5.46-57.65,19.64-81.25,40.07
		c-1.29,1.12-2.16,2.37-2.31,4.21c-1.49,17.38-2.56,34.69-1.31,52.21c1.7,23.95,7.26,46.88,15.53,69.25
		c5.27,14.26,5.44,14.16,20.38,17.95c19.62,4.98,39.51,4.91,59.42,2.76c18.34-1.98,36.33-5.83,53.83-11.77
		C389.16,812.02,391,812.33,391.65,810.26z M517.12,629.83c0.45,0.19,0.9,0.39,1.35,0.58c1.09,0.4,2.18,0.83,3.28,1.19
		c31.32,10.18,62.48,20.85,92.66,34.09c14.77,6.48,29.28,13.55,43.92,20.32c1.63,0.75,3.6,2.64,4.02-1.3
		c1.63-15.21,2.89-30.44,3-45.75c0.02-2.61-1.07-3.33-3.52-3.6c-35.27-3.97-64.79-19.97-90.39-43.8
		c-16.18-15.06-30.11-32.44-47.56-46.23c-18.64-14.73-37.62-28.89-60.31-37.01c-1.58-0.88-3.09-1.97-4.77-2.61
		c-33.94-12.91-68.73-17.65-104.66-10.54c-6.79,1.34-13.93,2.08-19.68,6.5c-11.52,8.85-21.77,19.07-31.19,30.08
		c-21.53,25.18-37.67,53.52-48.94,84.63c-2.85,7.88-5.67,15.81-6.92,24.92c6.26-3.75,11.71-7.23,17.35-10.36
		c28.35-15.71,59.37-20.9,91.17-22.37c18.93-0.88,37.87-0.2,56.8,1.61c22.69,2.17,45.07,5.97,67.28,10.93
		c12.15,2.72,24.25,5.67,36.37,8.52C516.61,629.78,516.86,629.85,517.12,629.83z M277.05,846.51c-0.15,0.73-0.36,1.12-0.25,1.34
		c0.53,1.02,1.12,2.03,1.76,2.99c14.96,22.15,31.85,42.62,52.28,60.01c20.02,17.04,41.95,30.98,66.05,41.61
		c5,2.21,9.52,2.03,14.41,1.13c29.35-5.37,56.97-15.47,83.37-29.41c37.12-19.6,67.73-46.83,94.49-78.71
		c16.21-19.31,29.46-40.64,41.82-62.56c2.05-3.64,1.11-5.15-2.36-6.73c-20.89-9.51-42.45-11.34-64.77-6.34
		c-25.58,5.72-48.87,17.22-72.28,28.4c-27.47,13.12-54.93,26.23-84.02,35.54c-31.08,9.94-62.81,16.11-95.49,16.06
		C300.36,849.82,288.61,848.64,277.05,846.51z M449.56,967.8c16.25,3.56,31.65,4.5,47.05,4.93c13.11,0.37,26.19-1.07,39.22-2.68
		c23.34-2.87,46.01-8.53,68.17-16.28c1.7-0.6,3.24-1.32,4.55-2.83c11.37-13.07,22.29-26.47,30.87-41.57
		c14.71-25.88,24.31-53.19,21.92-83.56c-0.88-11.22-3.82-21.85-10.66-31.8C604.23,875.55,542.26,938.68,449.56,967.8z
		 M564.78,223.35c-1.39-0.1-1.24-0.94-1.47-1.48c-9.65-23.85-19.35-47.69-28.87-71.59c-1.46-3.67-3.27-5.54-7.54-5.25
		c-5.3,0.36-10.66,0.23-15.96-0.17c-4.04-0.3-5.35,0.76-5.3,5.06c0.26,21.3,0.17,42.6,0.18,63.9c0.01,23.63,0.05,47.26-0.11,70.89
		c-0.02,3.33,0.91,4.29,4.18,4.2c6.15-0.17,12.33-0.14,18.46,0.27c3.65,0.24,4.34-1.04,4.32-4.41c-0.13-21.3-0.04-42.6-0.03-63.9
		c0-3.52,0-7.03,0-11.43c1.01,1.19,1.43,1.49,1.59,1.89c10.16,24.91,20.33,49.82,30.38,74.77c1.05,2.61,2.2,3.97,5.31,3.99
		c6.15,0.03,12.31,0.45,18.44,1.02c3.02,0.28,4.11-0.36,4.01-3.62c-0.24-7.31-0.04-14.64-0.07-21.96
		c-0.16-37.77-0.38-75.54-0.44-113.32c0-3.24-0.86-4.24-4.12-4.26c-5.98-0.03-11.98-0.38-17.93-1.01c-3.98-0.42-5.4,0.43-5.33,4.84
		c0.33,19.46,0.24,38.94,0.3,58.41C564.8,214.54,564.78,218.93,564.78,223.35z M739.61,572.79c-0.46,0.08-0.92,0.16-1.37,0.24
		c-0.66,3.75-1.11,7.56-2.03,11.25c-5.98,23.97-17.63,43.11-43.39,49.8c-3.06,0.8-2.78,2.67-2.85,4.84
		c-0.58,18.63-1.94,37.2-5.22,55.57c-0.63,3.55,0.3,5.01,3.38,6.44c17.11,7.96,32.95,18.05,48.07,29.27
		c11.9,8.83,22.84,18.68,32.21,31.71C781.72,694.45,771.92,631.86,739.61,572.79z M612.29,220.57c0.11,0,0.22,0,0.33,0
		c0,15.14-0.06,30.28,0.02,45.42c0.07,13.93,8.58,25.59,22.07,28.36c12.85,2.63,26.04,3.95,39.16,3.85
		c14.45-0.11,22.43-9.18,22.37-23.71c-0.13-29.45-0.24-58.89-0.34-88.34c-0.05-14.98-10.29-28.41-24.77-30.87
		c-11.29-1.91-22.78-3.08-34.22-3.47c-15.46-0.53-24.53,8.87-24.6,24.33C612.24,190.96,612.29,205.76,612.29,220.57z M382.68,254.84
		c-0.01,0-0.02,0-0.02,0c0-3.66,0.01-7.32,0-10.99c-0.06-13.48-4.05-19.24-16.57-24.14c-10.22-3.99-20.38-8.12-30.62-12.06
		c-4.26-1.64-6.4-4.4-6.23-9.06c0.16-4.32-0.03-8.65,0.04-12.98c0.08-4.67,2.43-7.49,7.12-8.11c3.63-0.48,7.27-0.82,10.92-1.2
		c5.42-0.57,8.13,1.73,8.32,7.26c0.13,3.82,0.16,7.66,0.02,11.48c-0.08,2.39,0.65,3.24,3.14,2.96c7.11-0.79,14.23-1.49,21.37-2
		c2.4-0.17,2.61-1.46,2.6-3.28c-0.04-5.49-0.06-10.99-0.06-16.48c0.01-16.9-9.79-26.46-26.59-25.5c-8.8,0.5-17.6,1.34-26.33,2.54
		c-17.57,2.41-27.8,14.47-27.71,32.08c0.03,6.66-0.01,13.32-0.04,19.97c-0.05,13.94,4.25,20.24,17.24,25.4
		c10.2,4.06,20.34,8.27,30.57,12.25c3.92,1.52,5.89,4.05,5.82,8.27c-0.07,4.49,0.04,8.99-0.05,13.48c-0.09,4.48-2.48,7.16-6.88,7.78
		c-4.12,0.58-8.26,1.03-12.41,1.31c-5,0.34-7.31-1.85-7.47-7.01c-0.12-3.99-0.17-8,0.05-11.98c0.15-2.8-0.87-3.36-3.44-2.94
		c-6.73,1.09-13.49,2.06-20.26,2.9c-2.53,0.31-3.29,1.41-3.23,3.89c0.15,5.65,0.01,11.32-0.01,16.98
		c-0.05,16.03,10.17,25.31,26.26,23.77c9.28-0.89,18.54-1.86,27.81-2.87c16.7-1.82,26.62-12.91,26.67-29.76
		C382.69,262.83,382.68,258.83,382.68,254.84z M475.36,289.09c3.83,0,7.66-0.13,11.48,0.04c2.9,0.13,3.35-1.03,2.74-3.57
		c-1.13-4.68-2.04-9.42-3.05-14.13c-8.73-40.78-17.48-81.56-26.14-122.36c-0.59-2.76-1.51-3.81-4.56-3.61
		c-9.13,0.59-18.29,0.91-27.44,1.07c-2.92,0.05-3.92,1.09-4.45,3.89c-2.58,13.56-5.39,27.09-8.14,40.62
		c-6.6,32.45-13.13,64.91-19.91,97.32c-0.85,4.07,0.05,4.81,3.92,4.42c6.62-0.66,13.29-1.06,19.94-1.12
		c3.13-0.03,3.91-1.34,4.31-4.03c0.97-6.41,2.32-12.77,3.23-19.19c0.35-2.45,1.18-3.44,3.7-3.47c4.32-0.04,8.64-0.49,12.97-0.61
		c4.3-0.12,9.62-1.61,12.62,0.36c3.14,2.05,2.15,7.93,2.97,12.12C462.08,289.83,462.01,289.84,475.36,289.09z M292.86,302.08
		c-0.28-1.43-0.45-2.41-0.66-3.38c-1.84-8.61-3.67-17.22-5.52-25.82c-7.54-35.07-15.11-70.13-22.57-105.21
		c-0.59-2.78-1.25-3.86-4.51-3.17c-8.45,1.79-16.98,3.28-25.54,4.43c-4.13,0.56-5.65,2.46-6.39,6.4
		c-4.05,21.56-8.42,43.06-12.58,64.6c-4.79,24.82-9.41,49.66-14.29,74.46c-0.83,4.23,0.22,5.12,4.28,4.18
		c6.31-1.45,12.69-2.74,19.1-3.61c3.01-0.41,3.83-1.83,4.21-4.42c0.94-6.58,2.19-13.12,3-19.72c0.31-2.49,1.35-3.29,3.66-3.65
		c7.56-1.17,15.11-2.42,22.61-3.93c2.77-0.56,3.48,0.48,3.86,2.86c0.98,6.07,2.11,12.12,3.22,18.16c0.28,1.51-0.05,3.61,2.65,3.19
		c7.89-1.2,15.78-2.41,23.68-3.55C292.53,303.71,293.15,303.11,292.86,302.08z M890.07,334.17c-0.11-0.81-0.16-1.3-0.25-1.79
		c-9.23-47.5-18.5-94.99-27.64-142.51c-0.48-2.5-1.68-3.28-3.83-3.7c-8.97-1.76-17.98-3.4-26.88-5.5c-3.52-0.83-4.49,0.2-5.17,3.47
		c-4.4,21.18-8.88,42.34-13.57,63.46c-4.79,21.61-9.74,43.19-14.87,64.72c-0.96,4.02,0.11,5.14,3.98,5.66
		c6.59,0.89,13.11,2.29,19.62,3.66c2.51,0.53,3.55-0.06,3.96-2.7c0.95-6.08,2.32-12.1,3.3-18.18c0.39-2.41,1.24-2.93,3.61-2.42
		c7.48,1.62,15,3.07,22.53,4.43c2.71,0.49,3.87,1.77,4.22,4.54c0.84,6.6,2.05,13.15,3.05,19.73c0.28,1.86,0.43,3.4,2.92,3.87
		c7.51,1.44,14.97,3.17,22.43,4.83C889.16,336.13,890.57,336.37,890.07,334.17z M194.13,743.65c0.88-2.57-0.22-3.77-0.73-5.08
		c-3.48-8.82-7.27-17.52-10.42-26.45c-8.69-24.62-16.21-49.6-23.03-74.81c-9.82-36.28-16.34-73.21-22-110.3
		c-2.95-19.35-5.53-38.76-7.65-58.22c-1.62-14.84-3.27-29.71-3.54-44.68c-0.05-2.68,0.45-4.11,3.44-4.87
		c35.92-9.07,71.93-17.72,108.13-25.61c15.23-3.32,11.8,0.45,12.37-15.09c0.12-3.24-0.83-3.73-4.07-3.17
		c-45.98,7.98-91.64,17.54-137.06,28.22c-3.45,0.81-5.09,2.07-4.71,5.96c1.47,15.2,2.52,30.44,4.01,45.64
		c2.95,30.1,7.76,59.91,14.03,89.51c13.53,63.88,33.08,125.67,63.41,183.75C188.81,733.27,191.27,738.11,194.13,743.65z
		 M755.8,270.27c-1.21-0.55-1.15-1.44-1.31-2.23c-6.35-33.46-12.74-66.91-19-100.38c-0.46-2.48-1.09-3.7-3.88-3.99
		c-6.77-0.71-13.53-1.71-20.24-2.86c-3.64-0.62-4.41,0.09-3.59,3.93c9.97,46.29,19.76,92.61,29.53,138.94
		c0.51,2.42,1.33,3.65,4.05,4.02c9.23,1.26,18.44,2.68,27.58,4.43c3.36,0.64,4.17-0.27,4.82-3.43c3.22-15.62,6.67-31.2,10.17-46.76
		c6.21-27.57,12.44-55.14,18.85-82.67c0.81-3.46,0.01-4.7-3.36-5.17c-6.91-0.96-13.83-2-20.67-3.37c-2.89-0.58-3.75,0.26-4.22,2.95
		C768.95,205.95,762.32,238.02,755.8,270.27z M114.7,265.06c-0.16,0-0.32,0-0.49,0c0,15.31-0.05,30.62,0.02,45.93
		c0.04,10.74,4.81,17.71,13.71,20.14c4.41,1.2,8.93,1.14,13.37,0.27c7.99-1.56,15.97-3.21,23.9-5.07
		c14.46-3.4,25.12-14.78,26.18-28.58c0.63-8.28,0.21-16.63,0.37-24.95c0.04-2.29-0.65-2.9-2.91-2.36c-4.21,1-8.48,1.71-12.71,2.61
		c-10.54,2.24-10.54,2.26-10.51,12.95c0.04,15.93-0.72,16.83-16.42,19.52c-6.74,1.16-8.85-0.59-8.81-7.5
		c0.13-22.97,0.61-45.93,0.36-68.89c-0.2-17.87,1.84-16.54,16.62-19.98c0.16-0.04,0.33-0.06,0.49-0.09
		c5.26-0.84,7.61,0.99,7.77,6.28c0.13,4.49,0.13,8.99,0.02,13.48c-0.06,2.39,0.41,3.21,3.09,2.54c6.45-1.6,12.96-3,19.51-4.11
		c3.05-0.52,3.64-1.98,3.58-4.72c-0.13-6.32,0.03-12.65,0.05-18.97c0.03-14.23-10.64-23.46-24.61-20.94
		c-8.99,1.63-17.96,3.53-26.8,5.83c-15.8,4.11-25.8,17.45-25.78,33.69C114.71,236.44,114.7,250.75,114.7,265.06z M358.69,370.8
		c0.03,0,0.06,0,0.08,0c0-7.98-0.04-15.96,0.01-23.94c0.07-12.27-6.62-19.05-18.85-18.26c-9.61,0.62-19.22,1.68-28.73,3.17
		c-10.22,1.59-19.15,10.06-18.74,22.16c0.55,16.44,0.48,32.92-0.08,49.36c-0.44,12.91,9.01,17.46,17.98,16.71
		c10.1-0.85,20.19-1.93,30.22-3.37c11.27-1.62,18.11-9.99,18.11-21.39C358.69,387.09,358.69,378.95,358.69,370.8z M505.46,408.41
		c0,0.03,0,0.05,0,0.08c4.49,0,8.98,0.11,13.47-0.02c11.91-0.35,18.67-7.34,18.67-19.18c0-3.82-0.03-7.65-0.03-11.48
		c-0.01-10.77-3.01-14.94-13.32-18.02c-7.95-2.38-15.98-4.49-23.93-6.87c-6.07-1.82-7.03-3.77-5.91-11.41c0.76-5.2,4.9-3.9,8.2-4.08
		c2.32-0.13,4.67,0.09,6.98-0.09c4.76-0.37,7.45,1.35,6.86,6.49c-0.32,2.82,0.74,3.83,3.6,3.68c4.65-0.23,9.31-0.14,13.97-0.17
		c1.53-0.01,2.97,0.12,3.17-2.1c1.2-13.16-2.61-23.46-18.21-24.94c-8.91-0.85-17.96-0.66-26.92-0.26
		c-11.84,0.53-18.39,7.86-18.45,19.69c-0.02,3.99-0.09,7.98-0.05,11.97c0.09,8.39,2.99,12.46,11.11,15.01
		c7.76,2.44,15.61,4.57,23.42,6.85c9.07,2.64,8.97,2.64,8.7,11.96c-0.11,3.83-1.81,5.42-5.51,5.36c-3.49-0.06-6.99-0.15-10.48,0.05
		c-4.58,0.26-7.09-1.41-6.5-6.29c0.33-2.67-0.72-3.47-3.34-3.3c-4.81,0.31-9.64,0.31-14.46,0.46c-1.27,0.04-2.5-0.2-3,1.73
		c-3.36,12.95,4.53,24.04,17.98,24.82C496.14,408.64,500.81,408.41,505.46,408.41z M388.96,367.72c-0.03,0-0.06,0-0.09,0
		c0,13.31,0.12,26.62-0.08,39.92c-0.06,3.64,1.14,4.41,4.57,4.18c13.11-0.87,26.23-1.65,39.36-2.12
		c14.38-0.52,14.29-0.35,13.81-14.97c-0.09-2.76-0.97-3.34-3.48-3.18c-6.64,0.43-13.29,0.79-19.94,0.88
		c-4.27,0.06-9.8,2.31-12.48-0.36c-2.65-2.64-0.34-8.22-0.75-12.47c-0.32-3.35,0.77-4.81,4.32-4.75c4.15,0.07,8.31-0.3,12.46-0.58
		c13.18-0.88,13.08-0.9,12.81-14.06c-0.06-2.95-0.99-3.65-3.75-3.46c-7.47,0.51-14.96,0.68-22.42,1.22
		c-2.61,0.19-3.58-0.45-3.42-3.16c0.22-3.65,0.27-7.33,0.04-10.97c-0.17-2.74,1.02-3.29,3.42-3.37c6.48-0.23,12.96-0.63,19.43-1.04
		c4.29-0.27,10.16,0.88,12.46-1.44c2.65-2.68,0.47-8.53,0.81-12.98c0.21-2.77-0.6-3.74-3.56-3.57c-16.27,0.93-32.56,1.74-48.84,2.42
		c-3.48,0.15-4.83,1.14-4.76,4.94C389.12,341.76,388.96,354.74,388.96,367.72z M652.54,371.39c0.22,0,0.44,0,0.67,0
		c0,13.32,0.06,26.63-0.05,39.95c-0.02,2.59,0.53,3.82,3.4,4.11c16.89,1.68,33.76,3.51,50.63,5.41c2.5,0.28,3.71,0.07,3.5-2.9
		c-0.26-3.64-0.24-7.33-0.05-10.98c0.13-2.54-0.77-3.5-3.27-3.74c-6.62-0.65-13.22-1.51-19.83-2.32c-4.4-0.54-10.64,0.67-12.68-2.3
		c-2.19-3.21-0.51-8.98-0.8-13.61c-0.18-2.95,1.1-3.25,3.54-2.91c4.45,0.63,8.92,1.21,13.4,1.45c3.92,0.21,9.01,3.06,11.39,0.46
		c2.43-2.65,0.37-7.95,0.7-12.06c0.24-3.08-1.02-4.05-3.95-4.22c-4.15-0.25-8.27-0.89-12.39-1.45c-13.21-1.79-13.2-1.81-12.81-15.27
		c0-0.17,0.02-0.34,0-0.5c-0.39-2.59,0.88-3.08,3.18-2.77c6.59,0.91,13.19,1.79,19.81,2.49c4.11,0.43,9.35,2.88,11.97,0.66
		c2.04-1.74,0.43-7.52,0.85-11.46c0.43-4.03-1.07-5.35-5.07-5.76c-15.89-1.62-31.77-3.43-47.59-5.58c-4.21-0.57-4.65,0.78-4.6,4.35
		C652.65,345.42,652.54,358.4,652.54,371.39z M603.56,376.32c-0.12,0-0.25,0-0.37,0c0-10.48,0.11-20.96-0.07-31.44
		c-0.05-2.89,0.79-3.73,3.6-3.44c5.29,0.56,10.63,0.73,15.91,1.31c2.96,0.33,4.33-0.31,4.02-3.61c-0.28-2.97-0.39-6.02-0.04-8.97
		c0.47-3.96-1.18-5.1-4.9-5.3c-16.28-0.87-32.54-2.08-48.82-2.95c-14.05-0.76-13.96-0.64-13.66,13.61c0.06,2.9,1.03,3.69,3.71,3.71
		c4.66,0.03,9.32,0.63,13.96,0.44c4.09-0.17,5.32,1.12,5.29,5.31c-0.15,20.3,0.11,40.6,0.07,60.9c-0.01,2.87,0.49,4.2,3.71,4.17
		c4.48-0.05,8.99,0.25,13.45,0.71c3.24,0.33,4.29-0.64,4.22-3.99C603.42,396.62,603.56,386.47,603.56,376.32z"/>
	<path style="fill:#C01C33;" d="M387.61,812.3c0.77-1.83,2.21-2.33,4.05-2.04C391,812.33,389.16,812.02,387.61,812.3z"/>
	<path style="fill:#830114;" d="M517.12,629.83c0.45,0.19,0.9,0.39,1.35,0.58C518.03,630.22,517.58,630.02,517.12,629.83z"/>
	<path style="fill:#830114;" d="M473.13,486.97c0.66-0.14,1.07,0.14,1.29,0.75C473.99,487.48,473.56,487.23,473.13,486.97z"/>
	<path style="fill:#C01C33;" d="M609.36,460.6c-0.23-0.17-0.47-0.33-0.7-0.5c0.54-0.47,0.78-0.27,0.84,0.36
		C609.5,460.47,609.36,460.6,609.36,460.6z"/>
	<path style="fill:#830114;" d="M652.48,930.21c-0.38,0.28-0.76,0.55-1.15,0.83c0,0,0.06,0.06,0.06,0.06
		c0.25-0.41,0.49-0.83,0.74-1.24C652.25,929.97,652.37,930.08,652.48,930.21z"/>
	<path style="fill:#830114;" d="M651.34,931.03c-0.07,0.14-0.15,0.27-0.22,0.41c0.09-0.12,0.19-0.23,0.28-0.35
		C651.4,931.1,651.34,931.03,651.34,931.03z"/>
	<path style="fill:#020101;" d="M668.73,226.64c0,12.65,0.04,25.3-0.02,37.95c-0.03,6.76-2.08,8.6-8.84,8.08
		c-3.98-0.31-7.96-0.72-11.92-1.25c-5.52-0.74-7.9-3.43-7.93-8.96c-0.14-25.63-0.25-51.27-0.33-76.91
		c-0.02-6.12,2.13-8.22,8.12-7.86c4.15,0.25,8.3,0.67,12.42,1.19c5.67,0.71,8.2,3.51,8.24,9.29c0.08,12.82,0.02,25.64,0.02,38.45
		C668.57,226.64,668.65,226.64,668.73,226.64z"/>
	<path style="fill:#020101;" d="M442.64,182.2c1.83,9.73,3.71,19.45,5.47,29.19c1.6,8.81,2.97,17.66,4.67,26.45
		c0.52,2.7-0.12,3.53-2.81,3.58c-4.98,0.1-9.96,0.34-14.91,0.79c-3.07,0.28-3.47-0.67-2.95-3.56c3.35-18.78,6.5-37.59,9.72-56.39
		C442.1,182.25,442.37,182.22,442.64,182.2z"/>
	<path style="fill:#020101;" d="M246.55,202.74c3.28,17.98,6.51,35.97,9.9,53.92c0.63,3.35-0.16,4.79-3.71,5.14
		c-4.79,0.46-9.54,1.41-14.3,2.21c-1.69,0.28-2.93,0.49-2.5-2.04c3.32-19.81,6.55-39.64,9.81-59.46
		C246.02,202.59,246.29,202.66,246.55,202.74z"/>
	<path style="fill:#020101;" d="M844.5,219.78c2.49,14.64,4.98,29.28,7.47,43.93c0.69,4.09,1.29,8.2,2.06,12.27
		c0.58,3.07,0.19,4.66-3.61,3.67c-5.43-1.42-13.07-0.71-15.88-4.12c-2.89-3.51,0.88-10.57,1.84-16.06
		c2.31-13.23,4.8-26.44,7.21-39.65C843.9,219.81,844.2,219.79,844.5,219.78z"/>
	<path style="fill:#020101;" d="M337.83,372.99c0,6.64-0.11,13.29,0.04,19.93c0.09,4.28-1.77,6.51-6,6.94
		c-4.3,0.44-8.58,1.02-12.88,1.43c-3.69,0.35-5.55-1.25-5.53-5.15c0.08-13.62,0.06-27.24,0.02-40.86c-0.01-4.21,1.89-6.49,6.13-6.88
		c4.13-0.39,8.24-1.04,12.38-1.35c3.8-0.29,5.94,1.37,5.87,5.51C337.76,359.36,337.83,366.17,337.83,372.99z"/>
</g>
<g>
</g>
<g>
</g>
<g>
</g>
<g>
</g>
<g>
</g>
<g>
</g>
<g>
</g>
<g>
</g>
<g>
</g>
<g>
</g>
<g>
</g>
</svg>
